<?xml version="1.0" standalone="no"?>
  <!DOCTYPE svg PUBLIC "-//W3C//DTD SVG 1.1//EN" "http://www.w3.org/Graphics/SVG/1.1/DTD/svg11.dtd" >
  <svg>
  <metadata>
  Created by font-carrier
  </metadata>
  <defs>
  <font id="BaiJamjuree-Regular" horiz-adv-x="1360" vert-adv-y="1360" >
    <font-face
      
      font-family="Bai Jamjuree"
      
      font-weight="400"
      
      font-stretch="normal"
      
      units-per-em="1000"
      
      ascent="1000"
      
      descent="-250"
      
    />
      <missing-glyph />

      

      
      <glyph glyph-name="uni41" unicode="&#x41;" d="M549 0L477 194L170 194L98 0L22 0L291 700L325 700Q358 700 373 660L373 660L527 256L528 256L528 254L625 0L549 0ZM323 604L193 256L454 256L324 604L323 604Z"  horiz-adv-x="647" vert-adv-y="1000"  />

      
      <glyph glyph-name="unic1" unicode="&#xc1;" d="M549 0L477 194L170 194L98 0L22 0L291 700L325 700Q358 700 373 660L373 660L527 256L528 256L528 254L625 0L549 0ZM323 604L193 256L454 256L324 604L323 604ZM293 781L376 933L458 933L359 781L293 781Z"  horiz-adv-x="647" vert-adv-y="1000"  />

      
      <glyph glyph-name="uni0102" unicode="&#x0102;" d="M549 0L477 194L170 194L98 0L22 0L291 700L325 700Q358 700 373 660L373 660L527 256L528 256L528 254L625 0L549 0ZM323 604L193 256L454 256L324 604L323 604ZM318 773Q256 773 217.50 809Q179 845 179 904L179 904L179 912L237 912L237 904Q237 867 259 845Q281 823 318 823L318 823L330 823Q367 823 389.50 845Q412 867 412 904L412 904L412 912L469 912L469 904Q469 845 430.50 809Q392 773 330 773L330 773L318 773Z"  horiz-adv-x="647" vert-adv-y="1000"  />

      
      <glyph glyph-name="uni1EAE" unicode="&#x1EAE;" d="M549 0L477 194L170 194L98 0L22 0L291 700L325 700Q358 700 373 660L373 660L527 256L528 256L528 254L625 0L549 0ZM323 604L193 256L454 256L324 604L323 604ZM293 962L357 1078L427 1078L351 962L293 962ZM318 773Q256 773 217.50 809Q179 845 179 904L179 904L179 912L237 912L237 904Q237 867 259 845Q281 823 318 823L318 823L330 823Q367 823 389.50 845Q412 867 412 904L412 904L412 912L469 912L469 904Q469 845 430.50 809Q392 773 330 773L330 773L318 773Z"  horiz-adv-x="647" vert-adv-y="1000"  />

      
      <glyph glyph-name="uni1EB6" unicode="&#x1EB6;" d="M549 0L477 194L170 194L98 0L22 0L291 700L325 700Q358 700 373 660L373 660L527 256L528 256L528 254L625 0L549 0ZM323 604L193 256L454 256L324 604L323 604ZM324-179Q300-179 285-164Q270-149 270-125L270-125Q270-101 285-86Q300-71 324-71L324-71Q348-71 363-86Q378-101 378-125L378-125Q378-149 363-164Q348-179 324-179L324-179ZM318 773Q256 773 217.50 809Q179 845 179 904L179 904L179 912L237 912L237 904Q237 867 259 845Q281 823 318 823L318 823L330 823Q367 823 389.50 845Q412 867 412 904L412 904L412 912L469 912L469 904Q469 845 430.50 809Q392 773 330 773L330 773L318 773Z"  horiz-adv-x="647" vert-adv-y="1000"  />

      
      <glyph glyph-name="uni1EB0" unicode="&#x1EB0;" d="M549 0L477 194L170 194L98 0L22 0L291 700L325 700Q358 700 373 660L373 660L527 256L528 256L528 254L625 0L549 0ZM323 604L193 256L454 256L324 604L323 604ZM297 962L221 1078L291 1078L355 962L297 962ZM318 773Q256 773 217.50 809Q179 845 179 904L179 904L179 912L237 912L237 904Q237 867 259 845Q281 823 318 823L318 823L330 823Q367 823 389.50 845Q412 867 412 904L412 904L412 912L469 912L469 904Q469 845 430.50 809Q392 773 330 773L330 773L318 773Z"  horiz-adv-x="647" vert-adv-y="1000"  />

      
      <glyph glyph-name="uni1EB2" unicode="&#x1EB2;" d="M549 0L477 194L170 194L98 0L22 0L291 700L325 700Q358 700 373 660L373 660L527 256L528 256L528 254L625 0L549 0ZM323 604L193 256L454 256L324 604L323 604ZM297 942L297 950Q297 967 307.50 978.50Q318 990 337 1002L337 1002Q351 1012 358 1018.50Q365 1025 365 1034L365 1034L365 1043Q365 1056 357 1063Q349 1070 335 1070L335 1070L319 1070Q284 1070 284 1036L284 1036L236 1036Q236 1114 319 1114L319 1114L335 1114Q415 1114 415 1043L415 1043L415 1034Q415 1015 403.50 1002Q392 989 373 977L373 977Q361 969 355 963Q349 957 349 950L349 950L349 942L297 942ZM318 773Q256 773 217.50 809Q179 845 179 904L179 904L179 912L237 912L237 904Q237 867 259 845Q281 823 318 823L318 823L330 823Q367 823 389.50 845Q412 867 412 904L412 904L412 912L469 912L469 904Q469 845 430.50 809Q392 773 330 773L330 773L318 773Z"  horiz-adv-x="647" vert-adv-y="1000"  />

      
      <glyph glyph-name="uni1EB4" unicode="&#x1EB4;" d="M549 0L477 194L170 194L98 0L22 0L291 700L325 700Q358 700 373 660L373 660L527 256L528 256L528 254L625 0L549 0ZM323 604L193 256L454 256L324 604L323 604ZM379 954Q359 954 345 963Q331 972 314 989L314 989Q301 1001 293 1007Q285 1013 276 1013L276 1013L267 1013Q254 1013 245 1000.50Q236 988 235 968L235 968L186 968Q187 1008 209.50 1032.50Q232 1057 267 1057L267 1057L276 1057Q299 1057 314.50 1047Q330 1037 346 1020L346 1020Q358 1008 364.50 1003Q371 998 379 998L379 998L388 998Q400 998 408.50 1010.50Q417 1023 418 1043L418 1043L467 1043Q466 1003 444 978.50Q422 954 388 954L388 954L379 954ZM318 773Q256 773 217.50 809Q179 845 179 904L179 904L179 912L237 912L237 904Q237 867 259 845Q281 823 318 823L318 823L330 823Q367 823 389.50 845Q412 867 412 904L412 904L412 912L469 912L469 904Q469 845 430.50 809Q392 773 330 773L330 773L318 773Z"  horiz-adv-x="647" vert-adv-y="1000"  />

      
      <glyph glyph-name="uni01CD" unicode="&#x01CD;" d="M549 0L477 194L170 194L98 0L22 0L291 700L325 700Q358 700 373 660L373 660L527 256L528 256L528 254L625 0L549 0ZM323 604L193 256L454 256L324 604L323 604ZM296 781L172 943L240 943L324 831L408 943L476 943L351 781L296 781Z"  horiz-adv-x="647" vert-adv-y="1000"  />

      
      <glyph glyph-name="unic2" unicode="&#xc2;" d="M549 0L477 194L170 194L98 0L22 0L291 700L325 700Q358 700 373 660L373 660L527 256L528 256L528 254L625 0L549 0ZM323 604L193 256L454 256L324 604L323 604ZM172 781L296 943L351 943L476 781L408 781L324 893L240 781L172 781Z"  horiz-adv-x="647" vert-adv-y="1000"  />

      
      <glyph glyph-name="uni1EA4" unicode="&#x1EA4;" d="M549 0L477 194L170 194L98 0L22 0L291 700L325 700Q358 700 373 660L373 660L527 256L528 256L528 254L625 0L549 0ZM323 604L193 256L454 256L324 604L323 604ZM432 933L496 1049L566 1049L490 933L432 933ZM172 781L296 943L351 943L476 781L408 781L324 893L240 781L172 781Z"  horiz-adv-x="647" vert-adv-y="1000"  />

      
      <glyph glyph-name="uni1EAC" unicode="&#x1EAC;" d="M549 0L477 194L170 194L98 0L22 0L291 700L325 700Q358 700 373 660L373 660L527 256L528 256L528 254L625 0L549 0ZM323 604L193 256L454 256L324 604L323 604ZM324-179Q300-179 285-164Q270-149 270-125L270-125Q270-101 285-86Q300-71 324-71L324-71Q348-71 363-86Q378-101 378-125L378-125Q378-149 363-164Q348-179 324-179L324-179ZM172 781L296 943L351 943L476 781L408 781L324 893L240 781L172 781Z"  horiz-adv-x="647" vert-adv-y="1000"  />

      
      <glyph glyph-name="uni1EA6" unicode="&#x1EA6;" d="M549 0L477 194L170 194L98 0L22 0L291 700L325 700Q358 700 373 660L373 660L527 256L528 256L528 254L625 0L549 0ZM323 604L193 256L454 256L324 604L323 604ZM458 933L382 1049L452 1049L516 933L458 933ZM172 781L296 943L351 943L476 781L408 781L324 893L240 781L172 781Z"  horiz-adv-x="647" vert-adv-y="1000"  />

      
      <glyph glyph-name="uni1EA8" unicode="&#x1EA8;" d="M549 0L477 194L170 194L98 0L22 0L291 700L325 700Q358 700 373 660L373 660L527 256L528 256L528 254L625 0L549 0ZM323 604L193 256L454 256L324 604L323 604ZM435 923L435 931Q435 948 445.50 959.50Q456 971 475 983L475 983Q489 993 496 999.50Q503 1006 503 1015L503 1015L503 1024Q503 1037 495 1044Q487 1051 473 1051L473 1051L457 1051Q422 1051 422 1017L422 1017L374 1017Q374 1095 457 1095L457 1095L473 1095Q553 1095 553 1024L553 1024L553 1015Q553 996 541.50 983Q530 970 511 958L511 958Q499 950 493 944Q487 938 487 931L487 931L487 923L435 923ZM172 781L296 943L351 943L476 781L408 781L324 893L240 781L172 781Z"  horiz-adv-x="647" vert-adv-y="1000"  />

      
      <glyph glyph-name="uni1EAA" unicode="&#x1EAA;" d="M549 0L477 194L170 194L98 0L22 0L291 700L325 700Q358 700 373 660L373 660L527 256L528 256L528 254L625 0L549 0ZM323 604L193 256L454 256L324 604L323 604ZM379 978Q359 978 345 987Q331 996 314 1013L314 1013Q301 1026 293 1031.50Q285 1037 276 1037L276 1037L267 1037Q254 1037 245 1024.50Q236 1012 235 992L235 992L186 992Q187 1032 209.50 1056.50Q232 1081 267 1081L267 1081L276 1081Q299 1081 314.50 1071Q330 1061 346 1044L346 1044Q358 1032 364.50 1027Q371 1022 379 1022L379 1022L388 1022Q400 1022 408.50 1034.50Q417 1047 418 1067L418 1067L467 1067Q466 1027 444 1002.50Q422 978 388 978L388 978L379 978ZM172 781L296 943L351 943L476 781L408 781L324 893L240 781L172 781Z"  horiz-adv-x="647" vert-adv-y="1000"  />

      
      <glyph glyph-name="unic4" unicode="&#xc4;" d="M549 0L477 194L170 194L98 0L22 0L291 700L325 700Q358 700 373 660L373 660L527 256L528 256L528 254L625 0L549 0ZM323 604L193 256L454 256L324 604L323 604ZM224 781Q202 781 188.50 794.50Q175 808 175 830L175 830Q175 852 188.50 865.50Q202 879 224 879L224 879Q246 879 259.50 865.50Q273 852 273 830L273 830Q273 808 259.50 794.50Q246 781 224 781L224 781ZM423 781Q401 781 387.50 794.50Q374 808 374 830L374 830Q374 852 387.50 865.50Q401 879 423 879L423 879Q445 879 458.50 865.50Q472 852 472 830L472 830Q472 808 458.50 794.50Q445 781 423 781L423 781Z"  horiz-adv-x="647" vert-adv-y="1000"  />

      
      <glyph glyph-name="uni1EA0" unicode="&#x1EA0;" d="M549 0L477 194L170 194L98 0L22 0L291 700L325 700Q358 700 373 660L373 660L527 256L528 256L528 254L625 0L549 0ZM323 604L193 256L454 256L324 604L323 604ZM324-179Q300-179 285-164Q270-149 270-125L270-125Q270-101 285-86Q300-71 324-71L324-71Q348-71 363-86Q378-101 378-125L378-125Q378-149 363-164Q348-179 324-179L324-179Z"  horiz-adv-x="647" vert-adv-y="1000"  />

      
      <glyph glyph-name="unic0" unicode="&#xc0;" d="M549 0L477 194L170 194L98 0L22 0L291 700L325 700Q358 700 373 660L373 660L527 256L528 256L528 254L625 0L549 0ZM323 604L193 256L454 256L324 604L323 604ZM292 781L193 933L275 933L358 781L292 781Z"  horiz-adv-x="647" vert-adv-y="1000"  />

      
      <glyph glyph-name="uni1EA2" unicode="&#x1EA2;" d="M549 0L477 194L170 194L98 0L22 0L291 700L325 700Q358 700 373 660L373 660L527 256L528 256L528 254L625 0L549 0ZM323 604L193 256L454 256L324 604L323 604ZM289 767L289 783Q289 804 301.50 818Q314 832 337 847L337 847Q354 859 362.50 867Q371 875 371 886L371 886L371 897Q371 930 335 930L335 930L315 930Q273 930 273 888L273 888L215 888Q215 982 315 982L315 982L335 982Q382 982 406.50 960.50Q431 939 431 897L431 897L431 886Q431 863 418 848Q405 833 381 816L381 816Q366 806 358.50 798.50Q351 791 351 783L351 783L351 767L289 767Z"  horiz-adv-x="647" vert-adv-y="1000"  />

      
      <glyph glyph-name="uni0100" unicode="&#x0100;" d="M549 0L477 194L170 194L98 0L22 0L291 700L325 700Q358 700 373 660L373 660L527 256L528 256L528 254L625 0L549 0ZM323 604L193 256L454 256L324 604L323 604ZM197 791L197 843L452 843L452 791L197 791Z"  horiz-adv-x="647" vert-adv-y="1000"  />

      
      <glyph glyph-name="uni0104" unicode="&#x0104;" d="M549 0L477 194L170 194L98 0L22 0L291 700L325 700Q358 700 373 660L373 660L527 256L528 256L528 254L625 0L549 0ZM323 604L193 256L454 256L324 604L323 604ZM601-209Q553-209 524.50-183Q496-157 496-113L496-113L496-103Q496-72 512.50-43.50Q529-15 557 0L557 0L625 0Q594-16 576-42.50Q558-69 558-99L558-99L558-109Q558-129 570.50-142Q583-155 606-155L606-155L616-155Q629-155 644.50-149.50Q660-144 672-135L672-135L672-191Q662-199 644.50-204Q627-209 611-209L611-209L601-209Z"  horiz-adv-x="647" vert-adv-y="1000"  />

      
      <glyph glyph-name="unic5" unicode="&#xc5;" d="M549 0L477 194L170 194L98 0L22 0L291 700L325 700Q358 700 373 660L373 660L527 256L528 256L528 254L625 0L549 0ZM323 604L193 256L454 256L324 604L323 604ZM324 743Q277 743 247.50 771.50Q218 800 218 846L218 846Q218 892 247.50 920.50Q277 949 324 949L324 949Q371 949 400.50 920.50Q430 892 430 846L430 846Q430 800 400.50 771.50Q371 743 324 743L324 743ZM324 791Q350 791 365 806Q380 821 380 846L380 846Q380 871 365 886Q350 901 324 901L324 901Q298 901 283 886Q268 871 268 846L268 846Q268 821 283 806Q298 791 324 791L324 791Z"  horiz-adv-x="647" vert-adv-y="1000"  />

      
      <glyph glyph-name="uni01FA" unicode="&#x01FA;" d="M549 0L477 194L170 194L98 0L22 0L291 700L325 700Q358 700 373 660L373 660L527 256L528 256L528 254L625 0L549 0ZM323 604L193 256L454 256L324 604L323 604ZM324 743Q277 743 247.50 771.50Q218 800 218 846L218 846Q218 892 247.50 920.50Q277 949 324 949L324 949Q371 949 400.50 920.50Q430 892 430 846L430 846Q430 800 400.50 771.50Q371 743 324 743L324 743ZM324 791Q350 791 365 806Q380 821 380 846L380 846Q380 871 365 886Q350 901 324 901L324 901Q298 901 283 886Q268 871 268 846L268 846Q268 821 283 806Q298 791 324 791L324 791ZM293 990L376 1142L458 1142L359 990L293 990Z"  horiz-adv-x="647" vert-adv-y="1000"  />

      
      <glyph glyph-name="unic3" unicode="&#xc3;" d="M549 0L477 194L170 194L98 0L22 0L291 700L325 700Q358 700 373 660L373 660L527 256L528 256L528 254L625 0L549 0ZM323 604L193 256L454 256L324 604L323 604ZM384 773Q361 773 344.50 783.50Q328 794 310 813L310 813Q294 828 286 834Q278 840 267 840L267 840L257 840Q242 840 231 826Q220 812 219 789L219 789L163 789Q164 834 190.50 862Q217 890 257 890L257 890L267 890Q292 890 309.50 879Q327 868 347 848L347 848Q359 835 367 829Q375 823 384 823L384 823L394 823Q408 823 418.50 837Q429 851 430 874L430 874L486 874Q485 829 459 801Q433 773 394 773L394 773L384 773Z"  horiz-adv-x="647" vert-adv-y="1000"  />

      
      <glyph glyph-name="unic6" unicode="&#xc6;" d="M8 0L391 700L876 700L876 636L492 636L492 390L836 390L836 326L492 326L492 64L876 64L876 0L483 0Q452 0 435 17.50Q418 35 418 66L418 66L418 194L190 194L84 0L8 0ZM224 256L418 256L418 608L417 608L224 256Z"  horiz-adv-x="926" vert-adv-y="1000"  />

      
      <glyph glyph-name="uni01FC" unicode="&#x01FC;" d="M8 0L391 700L876 700L876 636L492 636L492 390L836 390L836 326L492 326L492 64L876 64L876 0L483 0Q452 0 435 17.50Q418 35 418 66L418 66L418 194L190 194L84 0L8 0ZM224 256L418 256L418 608L417 608L224 256ZM514 781L597 933L679 933L580 781L514 781Z"  horiz-adv-x="926" vert-adv-y="1000"  />

      
      <glyph glyph-name="uni42" unicode="&#x42;" d="M145 0Q116 0 98 18Q80 36 80 65L80 65L80 700L376 700Q465 700 519.50 657.50Q574 615 574 545L574 545L574 492Q574 455 557 421.50Q540 388 510 368L510 368L510 367Q559 354 588.50 316.50Q618 279 618 229L618 229L618 181Q618 99 566 49.50Q514 0 425 0L425 0L145 0ZM154 384L396 384Q443 384 471.50 413.50Q500 443 500 492L500 492L500 545Q500 585 465.50 609.50Q431 634 376 634L376 634L154 634L154 384ZM154 66L415 66Q475 66 509.50 97.50Q544 129 544 181L544 181L544 229Q544 271 514 296.50Q484 322 435 322L435 322L154 322L154 66Z"  horiz-adv-x="662" vert-adv-y="1000"  />

      
      <glyph glyph-name="uni43" unicode="&#x43;" d="M287-8Q220-8 168.50 24Q117 56 88.50 113.50Q60 171 60 246L60 246L60 454Q60 529 88.50 587Q117 645 169.50 676.50Q222 708 291 708L291 708L397 708Q462 708 511.50 680Q561 652 588.50 601Q616 550 616 484L616 484L544 484Q544 555 503.50 598.50Q463 642 397 642L397 642L291 642Q220 642 177 590.50Q134 539 134 454L134 454L134 246Q134 161 176 109.50Q218 58 287 58L287 58L395 58Q463 58 504.50 106Q546 154 546 232L546 232L618 232Q618 161 590 106.50Q562 52 511.50 22Q461-8 395-8L395-8L287-8Z"  horiz-adv-x="660" vert-adv-y="1000"  />

      
      <glyph glyph-name="uni0106" unicode="&#x0106;" d="M287-8Q220-8 168.50 24Q117 56 88.50 113.50Q60 171 60 246L60 246L60 454Q60 529 88.50 587Q117 645 169.50 676.50Q222 708 291 708L291 708L397 708Q462 708 511.50 680Q561 652 588.50 601Q616 550 616 484L616 484L544 484Q544 555 503.50 598.50Q463 642 397 642L397 642L291 642Q220 642 177 590.50Q134 539 134 454L134 454L134 246Q134 161 176 109.50Q218 58 287 58L287 58L395 58Q463 58 504.50 106Q546 154 546 232L546 232L618 232Q618 161 590 106.50Q562 52 511.50 22Q461-8 395-8L395-8L287-8ZM313 781L396 933L478 933L379 781L313 781Z"  horiz-adv-x="660" vert-adv-y="1000"  />

      
      <glyph glyph-name="uni010C" unicode="&#x010C;" d="M287-8Q220-8 168.50 24Q117 56 88.50 113.50Q60 171 60 246L60 246L60 454Q60 529 88.50 587Q117 645 169.50 676.50Q222 708 291 708L291 708L397 708Q462 708 511.50 680Q561 652 588.50 601Q616 550 616 484L616 484L544 484Q544 555 503.50 598.50Q463 642 397 642L397 642L291 642Q220 642 177 590.50Q134 539 134 454L134 454L134 246Q134 161 176 109.50Q218 58 287 58L287 58L395 58Q463 58 504.50 106Q546 154 546 232L546 232L618 232Q618 161 590 106.50Q562 52 511.50 22Q461-8 395-8L395-8L287-8ZM316 781L192 943L260 943L344 831L428 943L496 943L371 781L316 781Z"  horiz-adv-x="660" vert-adv-y="1000"  />

      
      <glyph glyph-name="unic7" unicode="&#xc7;" d="M395-8L366-8L345-54L352-54Q391-54 414.50-75Q438-96 438-130L438-130L438-141Q438-178 409-200.50Q380-223 333-223L333-223L278-223L278-175L331-175Q353-175 367-165.50Q381-156 381-141L381-141L381-130Q381-115 368.50-105.50Q356-96 336-96L336-96L289-96L289-52L308-8L287-8Q220-8 168.50 24Q117 56 88.50 113.50Q60 171 60 246L60 246L60 454Q60 529 88.50 587Q117 645 169.50 676.50Q222 708 291 708L291 708L397 708Q462 708 511.50 680Q561 652 588.50 601Q616 550 616 484L616 484L544 484Q544 555 503.50 598.50Q463 642 397 642L397 642L291 642Q220 642 177 590.50Q134 539 134 454L134 454L134 246Q134 161 176 109.50Q218 58 287 58L287 58L395 58Q463 58 504.50 106Q546 154 546 232L546 232L618 232Q618 161 590 106.50Q562 52 511.50 22Q461-8 395-8L395-8Z"  horiz-adv-x="660" vert-adv-y="1000"  />

      
      <glyph glyph-name="uni0108" unicode="&#x0108;" d="M287-8Q220-8 168.50 24Q117 56 88.50 113.50Q60 171 60 246L60 246L60 454Q60 529 88.50 587Q117 645 169.50 676.50Q222 708 291 708L291 708L397 708Q462 708 511.50 680Q561 652 588.50 601Q616 550 616 484L616 484L544 484Q544 555 503.50 598.50Q463 642 397 642L397 642L291 642Q220 642 177 590.50Q134 539 134 454L134 454L134 246Q134 161 176 109.50Q218 58 287 58L287 58L395 58Q463 58 504.50 106Q546 154 546 232L546 232L618 232Q618 161 590 106.50Q562 52 511.50 22Q461-8 395-8L395-8L287-8ZM192 781L316 943L371 943L496 781L428 781L344 893L260 781L192 781Z"  horiz-adv-x="660" vert-adv-y="1000"  />

      
      <glyph glyph-name="uni010A" unicode="&#x010A;" d="M287-8Q220-8 168.50 24Q117 56 88.50 113.50Q60 171 60 246L60 246L60 454Q60 529 88.50 587Q117 645 169.50 676.50Q222 708 291 708L291 708L397 708Q462 708 511.50 680Q561 652 588.50 601Q616 550 616 484L616 484L544 484Q544 555 503.50 598.50Q463 642 397 642L397 642L291 642Q220 642 177 590.50Q134 539 134 454L134 454L134 246Q134 161 176 109.50Q218 58 287 58L287 58L395 58Q463 58 504.50 106Q546 154 546 232L546 232L618 232Q618 161 590 106.50Q562 52 511.50 22Q461-8 395-8L395-8L287-8ZM344 781Q320 781 305 796Q290 811 290 835L290 835Q290 859 305 874Q320 889 344 889L344 889Q368 889 383 874Q398 859 398 835L398 835Q398 811 383 796Q368 781 344 781L344 781Z"  horiz-adv-x="660" vert-adv-y="1000"  />

      
      <glyph glyph-name="uni44" unicode="&#x44;" d="M145 0Q114 0 97 17Q80 34 80 65L80 65L80 700L370 700Q444 700 500 671.50Q556 643 587 590.50Q618 538 618 470L618 470L618 250Q618 127 556 63.50Q494 0 374 0L374 0L145 0ZM154 66L372 66Q457 66 500.50 112.50Q544 159 544 250L544 250L544 470Q544 543 495.50 588.50Q447 634 368 634L368 634L154 634L154 66Z"  horiz-adv-x="674" vert-adv-y="1000"  />

      
      <glyph glyph-name="unid0" unicode="&#xd0;" d="M421 700Q495 700 551 671.50Q607 643 638 590.50Q669 538 669 470L669 470L669 250Q669 127 607 63.50Q545 0 425 0L425 0L196 0Q165 0 148 17Q131 34 131 65L131 65L131 311L26 311L26 377L131 377L131 700L421 700ZM595 250L595 470Q595 543 546.50 588.50Q498 634 419 634L419 634L205 634L205 377L406 377L406 311L205 311L205 66L423 66Q508 66 551.50 112.50Q595 159 595 250L595 250Z"  horiz-adv-x="725" vert-adv-y="1000"  />

      
      <glyph glyph-name="uni010E" unicode="&#x010E;" d="M145 0Q114 0 97 17Q80 34 80 65L80 65L80 700L370 700Q444 700 500 671.50Q556 643 587 590.50Q618 538 618 470L618 470L618 250Q618 127 556 63.50Q494 0 374 0L374 0L145 0ZM154 66L372 66Q457 66 500.50 112.50Q544 159 544 250L544 250L544 470Q544 543 495.50 588.50Q447 634 368 634L368 634L154 634L154 66ZM314 781L190 943L258 943L342 831L426 943L494 943L369 781L314 781Z"  horiz-adv-x="674" vert-adv-y="1000"  />

      
      <glyph glyph-name="uni0110" unicode="&#x0110;" d="M421 700Q495 700 551 671.50Q607 643 638 590.50Q669 538 669 470L669 470L669 250Q669 127 607 63.50Q545 0 425 0L425 0L196 0Q165 0 148 17Q131 34 131 65L131 65L131 311L26 311L26 377L131 377L131 700L421 700ZM595 250L595 470Q595 543 546.50 588.50Q498 634 419 634L419 634L205 634L205 377L406 377L406 311L205 311L205 66L423 66Q508 66 551.50 112.50Q595 159 595 250L595 250Z"  horiz-adv-x="725" vert-adv-y="1000"  />

      
      <glyph glyph-name="uni1E0C" unicode="&#x1E0C;" d="M145 0Q114 0 97 17Q80 34 80 65L80 65L80 700L370 700Q444 700 500 671.50Q556 643 587 590.50Q618 538 618 470L618 470L618 250Q618 127 556 63.50Q494 0 374 0L374 0L145 0ZM154 66L372 66Q457 66 500.50 112.50Q544 159 544 250L544 250L544 470Q544 543 495.50 588.50Q447 634 368 634L368 634L154 634L154 66ZM347-179Q323-179 308-164Q293-149 293-125L293-125Q293-101 308-86Q323-71 347-71L347-71Q371-71 386-86Q401-101 401-125L401-125Q401-149 386-164Q371-179 347-179L347-179Z"  horiz-adv-x="674" vert-adv-y="1000"  />

      
      <glyph glyph-name="uni1E0E" unicode="&#x1E0E;" d="M145 0Q114 0 97 17Q80 34 80 65L80 65L80 700L370 700Q444 700 500 671.50Q556 643 587 590.50Q618 538 618 470L618 470L618 250Q618 127 556 63.50Q494 0 374 0L374 0L145 0ZM154 66L372 66Q457 66 500.50 112.50Q544 159 544 250L544 250L544 470Q544 543 495.50 588.50Q447 634 368 634L368 634L154 634L154 66ZM220-126L220-74L475-74L475-126L220-126Z"  horiz-adv-x="674" vert-adv-y="1000"  />

      
      <glyph glyph-name="uni45" unicode="&#x45;" d="M145 0Q114 0 97 17.50Q80 35 80 66L80 66L80 700L550 700L550 636L154 636L154 390L520 390L520 326L154 326L154 64L550 64L550 0L145 0Z"  horiz-adv-x="600" vert-adv-y="1000"  />

      
      <glyph glyph-name="unic9" unicode="&#xc9;" d="M145 0Q114 0 97 17.50Q80 35 80 66L80 66L80 700L550 700L550 636L154 636L154 390L520 390L520 326L154 326L154 64L550 64L550 0L145 0ZM287 781L370 933L452 933L353 781L287 781Z"  horiz-adv-x="600" vert-adv-y="1000"  />

      
      <glyph glyph-name="uni0114" unicode="&#x0114;" d="M145 0Q114 0 97 17.50Q80 35 80 66L80 66L80 700L550 700L550 636L154 636L154 390L520 390L520 326L154 326L154 64L550 64L550 0L145 0ZM312 773Q250 773 211.50 809Q173 845 173 904L173 904L173 912L231 912L231 904Q231 867 253 845Q275 823 312 823L312 823L324 823Q361 823 383.50 845Q406 867 406 904L406 904L406 912L463 912L463 904Q463 845 424.50 809Q386 773 324 773L324 773L312 773Z"  horiz-adv-x="600" vert-adv-y="1000"  />

      
      <glyph glyph-name="uni011A" unicode="&#x011A;" d="M145 0Q114 0 97 17.50Q80 35 80 66L80 66L80 700L550 700L550 636L154 636L154 390L520 390L520 326L154 326L154 64L550 64L550 0L145 0ZM290 781L166 943L234 943L318 831L402 943L470 943L345 781L290 781Z"  horiz-adv-x="600" vert-adv-y="1000"  />

      
      <glyph glyph-name="unica" unicode="&#xca;" d="M145 0Q114 0 97 17.50Q80 35 80 66L80 66L80 700L550 700L550 636L154 636L154 390L520 390L520 326L154 326L154 64L550 64L550 0L145 0ZM166 781L290 943L345 943L470 781L402 781L318 893L234 781L166 781Z"  horiz-adv-x="600" vert-adv-y="1000"  />

      
      <glyph glyph-name="uni1EBE" unicode="&#x1EBE;" d="M145 0Q114 0 97 17.50Q80 35 80 66L80 66L80 700L550 700L550 636L154 636L154 390L520 390L520 326L154 326L154 64L550 64L550 0L145 0ZM426 933L490 1049L560 1049L484 933L426 933ZM166 781L290 943L345 943L470 781L402 781L318 893L234 781L166 781Z"  horiz-adv-x="600" vert-adv-y="1000"  />

      
      <glyph glyph-name="uni1EC6" unicode="&#x1EC6;" d="M145 0Q114 0 97 17.50Q80 35 80 66L80 66L80 700L550 700L550 636L154 636L154 390L520 390L520 326L154 326L154 64L550 64L550 0L145 0ZM323-179Q299-179 284-164Q269-149 269-125L269-125Q269-101 284-86Q299-71 323-71L323-71Q347-71 362-86Q377-101 377-125L377-125Q377-149 362-164Q347-179 323-179L323-179ZM166 781L290 943L345 943L470 781L402 781L318 893L234 781L166 781Z"  horiz-adv-x="600" vert-adv-y="1000"  />

      
      <glyph glyph-name="uni1EC0" unicode="&#x1EC0;" d="M145 0Q114 0 97 17.50Q80 35 80 66L80 66L80 700L550 700L550 636L154 636L154 390L520 390L520 326L154 326L154 64L550 64L550 0L145 0ZM452 933L376 1049L446 1049L510 933L452 933ZM166 781L290 943L345 943L470 781L402 781L318 893L234 781L166 781Z"  horiz-adv-x="600" vert-adv-y="1000"  />

      
      <glyph glyph-name="uni1EC2" unicode="&#x1EC2;" d="M145 0Q114 0 97 17.50Q80 35 80 66L80 66L80 700L550 700L550 636L154 636L154 390L520 390L520 326L154 326L154 64L550 64L550 0L145 0ZM429 923L429 931Q429 948 439.50 959.50Q450 971 469 983L469 983Q483 993 490 999.50Q497 1006 497 1015L497 1015L497 1024Q497 1037 489 1044Q481 1051 467 1051L467 1051L451 1051Q416 1051 416 1017L416 1017L368 1017Q368 1095 451 1095L451 1095L467 1095Q547 1095 547 1024L547 1024L547 1015Q547 996 535.50 983Q524 970 505 958L505 958Q493 950 487 944Q481 938 481 931L481 931L481 923L429 923ZM166 781L290 943L345 943L470 781L402 781L318 893L234 781L166 781Z"  horiz-adv-x="600" vert-adv-y="1000"  />

      
      <glyph glyph-name="uni1EC4" unicode="&#x1EC4;" d="M145 0Q114 0 97 17.50Q80 35 80 66L80 66L80 700L550 700L550 636L154 636L154 390L520 390L520 326L154 326L154 64L550 64L550 0L145 0ZM373 978Q353 978 339 987Q325 996 308 1013L308 1013Q295 1026 287 1031.50Q279 1037 270 1037L270 1037L261 1037Q248 1037 239 1024.50Q230 1012 229 992L229 992L180 992Q181 1032 203.50 1056.50Q226 1081 261 1081L261 1081L270 1081Q293 1081 308.50 1071Q324 1061 340 1044L340 1044Q352 1032 358.50 1027Q365 1022 373 1022L373 1022L382 1022Q394 1022 402.50 1034.50Q411 1047 412 1067L412 1067L461 1067Q460 1027 438 1002.50Q416 978 382 978L382 978L373 978ZM166 781L290 943L345 943L470 781L402 781L318 893L234 781L166 781Z"  horiz-adv-x="600" vert-adv-y="1000"  />

      
      <glyph glyph-name="unicb" unicode="&#xcb;" d="M145 0Q114 0 97 17.50Q80 35 80 66L80 66L80 700L550 700L550 636L154 636L154 390L520 390L520 326L154 326L154 64L550 64L550 0L145 0ZM218 781Q196 781 182.50 794.50Q169 808 169 830L169 830Q169 852 182.50 865.50Q196 879 218 879L218 879Q240 879 253.50 865.50Q267 852 267 830L267 830Q267 808 253.50 794.50Q240 781 218 781L218 781ZM417 781Q395 781 381.50 794.50Q368 808 368 830L368 830Q368 852 381.50 865.50Q395 879 417 879L417 879Q439 879 452.50 865.50Q466 852 466 830L466 830Q466 808 452.50 794.50Q439 781 417 781L417 781Z"  horiz-adv-x="600" vert-adv-y="1000"  />

      
      <glyph glyph-name="uni0116" unicode="&#x0116;" d="M145 0Q114 0 97 17.50Q80 35 80 66L80 66L80 700L550 700L550 636L154 636L154 390L520 390L520 326L154 326L154 64L550 64L550 0L145 0ZM318 781Q294 781 279 796Q264 811 264 835L264 835Q264 859 279 874Q294 889 318 889L318 889Q342 889 357 874Q372 859 372 835L372 835Q372 811 357 796Q342 781 318 781L318 781Z"  horiz-adv-x="600" vert-adv-y="1000"  />

      
      <glyph glyph-name="uni1EB8" unicode="&#x1EB8;" d="M145 0Q114 0 97 17.50Q80 35 80 66L80 66L80 700L550 700L550 636L154 636L154 390L520 390L520 326L154 326L154 64L550 64L550 0L145 0ZM323-179Q299-179 284-164Q269-149 269-125L269-125Q269-101 284-86Q299-71 323-71L323-71Q347-71 362-86Q377-101 377-125L377-125Q377-149 362-164Q347-179 323-179L323-179Z"  horiz-adv-x="600" vert-adv-y="1000"  />

      
      <glyph glyph-name="unic8" unicode="&#xc8;" d="M145 0Q114 0 97 17.50Q80 35 80 66L80 66L80 700L550 700L550 636L154 636L154 390L520 390L520 326L154 326L154 64L550 64L550 0L145 0ZM286 781L187 933L269 933L352 781L286 781Z"  horiz-adv-x="600" vert-adv-y="1000"  />

      
      <glyph glyph-name="uni1EBA" unicode="&#x1EBA;" d="M145 0Q114 0 97 17.50Q80 35 80 66L80 66L80 700L550 700L550 636L154 636L154 390L520 390L520 326L154 326L154 64L550 64L550 0L145 0ZM283 767L283 783Q283 804 295.50 818Q308 832 331 847L331 847Q348 859 356.50 867Q365 875 365 886L365 886L365 897Q365 930 329 930L329 930L309 930Q267 930 267 888L267 888L209 888Q209 982 309 982L309 982L329 982Q376 982 400.50 960.50Q425 939 425 897L425 897L425 886Q425 863 412 848Q399 833 375 816L375 816Q360 806 352.50 798.50Q345 791 345 783L345 783L345 767L283 767Z"  horiz-adv-x="600" vert-adv-y="1000"  />

      
      <glyph glyph-name="uni0112" unicode="&#x0112;" d="M145 0Q114 0 97 17.50Q80 35 80 66L80 66L80 700L550 700L550 636L154 636L154 390L520 390L520 326L154 326L154 64L550 64L550 0L145 0ZM191 791L191 843L446 843L446 791L191 791Z"  horiz-adv-x="600" vert-adv-y="1000"  />

      
      <glyph glyph-name="uni0118" unicode="&#x0118;" d="M145 0Q114 0 97 17.50Q80 35 80 66L80 66L80 700L550 700L550 636L154 636L154 390L520 390L520 326L154 326L154 64L550 64L550 0L145 0ZM526-209Q478-209 449.50-183Q421-157 421-113L421-113L421-103Q421-72 437.50-43.50Q454-15 482 0L482 0L550 0Q519-16 501-42.50Q483-69 483-99L483-99L483-109Q483-129 495.50-142Q508-155 531-155L531-155L541-155Q554-155 569.50-149.50Q585-144 597-135L597-135L597-191Q587-199 569.50-204Q552-209 536-209L536-209L526-209Z"  horiz-adv-x="600" vert-adv-y="1000"  />

      
      <glyph glyph-name="uni1EBC" unicode="&#x1EBC;" d="M145 0Q114 0 97 17.50Q80 35 80 66L80 66L80 700L550 700L550 636L154 636L154 390L520 390L520 326L154 326L154 64L550 64L550 0L145 0ZM378 773Q355 773 338.50 783.50Q322 794 304 813L304 813Q288 828 280 834Q272 840 261 840L261 840L251 840Q236 840 225 826Q214 812 213 789L213 789L157 789Q158 834 184.50 862Q211 890 251 890L251 890L261 890Q286 890 303.50 879Q321 868 341 848L341 848Q353 835 361 829Q369 823 378 823L378 823L388 823Q402 823 412.50 837Q423 851 424 874L424 874L480 874Q479 829 453 801Q427 773 388 773L388 773L378 773Z"  horiz-adv-x="600" vert-adv-y="1000"  />

      
      <glyph glyph-name="uni46" unicode="&#x46;" d="M80 0L80 700L540 700L540 634L154 634L154 378L503 378L503 312L154 312L154 0L80 0Z"  horiz-adv-x="576" vert-adv-y="1000"  />

      
      <glyph glyph-name="uni47" unicode="&#x47;" d="M289-8Q220-8 168.50 23.50Q117 55 88.50 113Q60 171 60 246L60 246L60 454Q60 529 89.50 586.50Q119 644 172 676Q225 708 294 708L294 708L400 708Q466 708 516.50 680Q567 652 595 601Q623 550 623 484L623 484L551 484Q551 555 509.50 598.50Q468 642 400 642L400 642L294 642Q222 642 178 590.50Q134 539 134 454L134 454L134 246Q134 161 176.50 109.50Q219 58 289 58L289 58L397 58Q468 58 512 107Q556 156 556 236L556 236L556 296L362 296L362 361L628 361L628 236Q628 164 599.50 108.50Q571 53 518.50 22.50Q466-8 397-8L397-8L289-8Z"  horiz-adv-x="684" vert-adv-y="1000"  />

      
      <glyph glyph-name="uni011E" unicode="&#x011E;" d="M289-8Q220-8 168.50 23.50Q117 55 88.50 113Q60 171 60 246L60 246L60 454Q60 529 89.50 586.50Q119 644 172 676Q225 708 294 708L294 708L400 708Q466 708 516.50 680Q567 652 595 601Q623 550 623 484L623 484L551 484Q551 555 509.50 598.50Q468 642 400 642L400 642L294 642Q222 642 178 590.50Q134 539 134 454L134 454L134 246Q134 161 176.50 109.50Q219 58 289 58L289 58L397 58Q468 58 512 107Q556 156 556 236L556 236L556 296L362 296L362 361L628 361L628 236Q628 164 599.50 108.50Q571 53 518.50 22.50Q466-8 397-8L397-8L289-8ZM340 773Q278 773 239.50 809Q201 845 201 904L201 904L201 912L259 912L259 904Q259 867 281 845Q303 823 340 823L340 823L352 823Q389 823 411.50 845Q434 867 434 904L434 904L434 912L491 912L491 904Q491 845 452.50 809Q414 773 352 773L352 773L340 773Z"  horiz-adv-x="684" vert-adv-y="1000"  />

      
      <glyph glyph-name="uni01E6" unicode="&#x01E6;" d="M289-8Q220-8 168.50 23.50Q117 55 88.50 113Q60 171 60 246L60 246L60 454Q60 529 89.50 586.50Q119 644 172 676Q225 708 294 708L294 708L400 708Q466 708 516.50 680Q567 652 595 601Q623 550 623 484L623 484L551 484Q551 555 509.50 598.50Q468 642 400 642L400 642L294 642Q222 642 178 590.50Q134 539 134 454L134 454L134 246Q134 161 176.50 109.50Q219 58 289 58L289 58L397 58Q468 58 512 107Q556 156 556 236L556 236L556 296L362 296L362 361L628 361L628 236Q628 164 599.50 108.50Q571 53 518.50 22.50Q466-8 397-8L397-8L289-8ZM318 781L194 943L262 943L346 831L430 943L498 943L373 781L318 781Z"  horiz-adv-x="684" vert-adv-y="1000"  />

      
      <glyph glyph-name="uni011C" unicode="&#x011C;" d="M289-8Q220-8 168.50 23.50Q117 55 88.50 113Q60 171 60 246L60 246L60 454Q60 529 89.50 586.50Q119 644 172 676Q225 708 294 708L294 708L400 708Q466 708 516.50 680Q567 652 595 601Q623 550 623 484L623 484L551 484Q551 555 509.50 598.50Q468 642 400 642L400 642L294 642Q222 642 178 590.50Q134 539 134 454L134 454L134 246Q134 161 176.50 109.50Q219 58 289 58L289 58L397 58Q468 58 512 107Q556 156 556 236L556 236L556 296L362 296L362 361L628 361L628 236Q628 164 599.50 108.50Q571 53 518.50 22.50Q466-8 397-8L397-8L289-8ZM194 781L318 943L373 943L498 781L430 781L346 893L262 781L194 781Z"  horiz-adv-x="684" vert-adv-y="1000"  />

      
      <glyph glyph-name="uni0122" unicode="&#x0122;" d="M289-8Q220-8 168.50 23.50Q117 55 88.50 113Q60 171 60 246L60 246L60 454Q60 529 89.50 586.50Q119 644 172 676Q225 708 294 708L294 708L400 708Q466 708 516.50 680Q567 652 595 601Q623 550 623 484L623 484L551 484Q551 555 509.50 598.50Q468 642 400 642L400 642L294 642Q222 642 178 590.50Q134 539 134 454L134 454L134 246Q134 161 176.50 109.50Q219 58 289 58L289 58L397 58Q468 58 512 107Q556 156 556 236L556 236L556 296L362 296L362 361L628 361L628 236Q628 164 599.50 108.50Q571 53 518.50 22.50Q466-8 397-8L397-8L289-8ZM277-280L236-224L251-214Q281-194 295.50-167.50Q310-141 310-106L310-106L310-75L382-75L382-106Q382-162 361-201Q340-240 296-268L296-268L277-280Z"  horiz-adv-x="684" vert-adv-y="1000"  />

      
      <glyph glyph-name="uni0120" unicode="&#x0120;" d="M289-8Q220-8 168.50 23.50Q117 55 88.50 113Q60 171 60 246L60 246L60 454Q60 529 89.50 586.50Q119 644 172 676Q225 708 294 708L294 708L400 708Q466 708 516.50 680Q567 652 595 601Q623 550 623 484L623 484L551 484Q551 555 509.50 598.50Q468 642 400 642L400 642L294 642Q222 642 178 590.50Q134 539 134 454L134 454L134 246Q134 161 176.50 109.50Q219 58 289 58L289 58L397 58Q468 58 512 107Q556 156 556 236L556 236L556 296L362 296L362 361L628 361L628 236Q628 164 599.50 108.50Q571 53 518.50 22.50Q466-8 397-8L397-8L289-8ZM346 781Q322 781 307 796Q292 811 292 835L292 835Q292 859 307 874Q322 889 346 889L346 889Q370 889 385 874Q400 859 400 835L400 835Q400 811 385 796Q370 781 346 781L346 781Z"  horiz-adv-x="684" vert-adv-y="1000"  />

      
      <glyph glyph-name="uni1E20" unicode="&#x1E20;" d="M289-8Q220-8 168.50 23.50Q117 55 88.50 113Q60 171 60 246L60 246L60 454Q60 529 89.50 586.50Q119 644 172 676Q225 708 294 708L294 708L400 708Q466 708 516.50 680Q567 652 595 601Q623 550 623 484L623 484L551 484Q551 555 509.50 598.50Q468 642 400 642L400 642L294 642Q222 642 178 590.50Q134 539 134 454L134 454L134 246Q134 161 176.50 109.50Q219 58 289 58L289 58L397 58Q468 58 512 107Q556 156 556 236L556 236L556 296L362 296L362 361L628 361L628 236Q628 164 599.50 108.50Q571 53 518.50 22.50Q466-8 397-8L397-8L289-8ZM219 791L219 843L474 843L474 791L219 791Z"  horiz-adv-x="684" vert-adv-y="1000"  />

      
      <glyph glyph-name="uni48" unicode="&#x48;" d="M80 0L80 700L154 700L154 386L540 386L540 700L614 700L614 0L540 0L540 320L154 320L154 0L80 0Z"  horiz-adv-x="694" vert-adv-y="1000"  />

      
      <glyph glyph-name="uni0126" unicode="&#x0126;" d="M720 570L720 510L640 510L640 0L566 0L566 320L180 320L180 0L106 0L106 510L26 510L26 570L106 570L106 700L180 700L180 570L566 570L566 700L640 700L640 570L720 570ZM566 386L566 510L180 510L180 386L566 386Z"  horiz-adv-x="746" vert-adv-y="1000"  />

      
      <glyph glyph-name="uni1E2A" unicode="&#x1E2A;" d="M80 0L80 700L154 700L154 386L540 386L540 700L614 700L614 0L540 0L540 320L154 320L154 0L80 0ZM341-202Q279-202 240.50-166Q202-130 202-71L202-71L202-63L260-63L260-71Q260-108 282-130Q304-152 341-152L341-152L353-152Q390-152 412.50-130Q435-108 435-71L435-71L435-63L492-63L492-71Q492-130 453.50-166Q415-202 353-202L353-202L341-202Z"  horiz-adv-x="694" vert-adv-y="1000"  />

      
      <glyph glyph-name="uni0124" unicode="&#x0124;" d="M80 0L80 700L154 700L154 386L540 386L540 700L614 700L614 0L540 0L540 320L154 320L154 0L80 0ZM193 781L317 943L372 943L497 781L429 781L345 893L261 781L193 781Z"  horiz-adv-x="694" vert-adv-y="1000"  />

      
      <glyph glyph-name="uni1E24" unicode="&#x1E24;" d="M80 0L80 700L154 700L154 386L540 386L540 700L614 700L614 0L540 0L540 320L154 320L154 0L80 0ZM347-179Q323-179 308-164Q293-149 293-125L293-125Q293-101 308-86Q323-71 347-71L347-71Q371-71 386-86Q401-101 401-125L401-125Q401-149 386-164Q371-179 347-179L347-179Z"  horiz-adv-x="694" vert-adv-y="1000"  />

      
      <glyph glyph-name="uni49" unicode="&#x49;" d="M90 0L90 700L164 700L164 0L90 0Z"  horiz-adv-x="254" vert-adv-y="1000"  />

      
      <glyph glyph-name="uni0132" unicode="&#x0132;" d="M90 0L90 700L164 700L164 0L90 0ZM449-8Q392-8 349 20.50Q306 49 282 100.50Q258 152 258 219L258 219L332 219Q332 146 364 102Q396 58 449 58L449 58L536 58Q592 58 624 104Q656 150 656 232L656 232L656 700L730 700L730 232Q730 119 679 55.50Q628-8 536-8L536-8L449-8Z"  horiz-adv-x="802" vert-adv-y="1000"  />

      
      <glyph glyph-name="unicd" unicode="&#xcd;" d="M90 0L90 700L164 700L164 0L90 0ZM96 781L179 933L261 933L162 781L96 781Z"  horiz-adv-x="254" vert-adv-y="1000"  />

      
      <glyph glyph-name="uni012C" unicode="&#x012C;" d="M90 0L90 700L164 700L164 0L90 0ZM121 773Q59 773 20.50 809Q-18 845-18 904L-18 904L-18 912L40 912L40 904Q40 867 62 845Q84 823 121 823L121 823L133 823Q170 823 192.50 845Q215 867 215 904L215 904L215 912L272 912L272 904Q272 845 233.50 809Q195 773 133 773L133 773L121 773Z"  horiz-adv-x="254" vert-adv-y="1000"  />

      
      <glyph glyph-name="uni01CF" unicode="&#x01CF;" d="M90 0L90 700L164 700L164 0L90 0ZM99 781L-25 943L43 943L127 831L211 943L279 943L154 781L99 781Z"  horiz-adv-x="254" vert-adv-y="1000"  />

      
      <glyph glyph-name="unice" unicode="&#xce;" d="M90 0L90 700L164 700L164 0L90 0ZM-25 781L99 943L154 943L279 781L211 781L127 893L43 781L-25 781Z"  horiz-adv-x="254" vert-adv-y="1000"  />

      
      <glyph glyph-name="unicf" unicode="&#xcf;" d="M90 0L90 700L164 700L164 0L90 0ZM27 781Q5 781-8.50 794.50Q-22 808-22 830L-22 830Q-22 852-8.50 865.50Q5 879 27 879L27 879Q49 879 62.50 865.50Q76 852 76 830L76 830Q76 808 62.50 794.50Q49 781 27 781L27 781ZM226 781Q204 781 190.50 794.50Q177 808 177 830L177 830Q177 852 190.50 865.50Q204 879 226 879L226 879Q248 879 261.50 865.50Q275 852 275 830L275 830Q275 808 261.50 794.50Q248 781 226 781L226 781Z"  horiz-adv-x="254" vert-adv-y="1000"  />

      
      <glyph glyph-name="uni0130" unicode="&#x0130;" d="M90 0L90 700L164 700L164 0L90 0ZM127 781Q103 781 88 796Q73 811 73 835L73 835Q73 859 88 874Q103 889 127 889L127 889Q151 889 166 874Q181 859 181 835L181 835Q181 811 166 796Q151 781 127 781L127 781Z"  horiz-adv-x="254" vert-adv-y="1000"  />

      
      <glyph glyph-name="uni1ECA" unicode="&#x1ECA;" d="M90 0L90 700L164 700L164 0L90 0ZM127-179Q103-179 88-164Q73-149 73-125L73-125Q73-101 88-86Q103-71 127-71L127-71Q151-71 166-86Q181-101 181-125L181-125Q181-149 166-164Q151-179 127-179L127-179Z"  horiz-adv-x="254" vert-adv-y="1000"  />

      
      <glyph glyph-name="unicc" unicode="&#xcc;" d="M90 0L90 700L164 700L164 0L90 0ZM95 781L-4 933L78 933L161 781L95 781Z"  horiz-adv-x="254" vert-adv-y="1000"  />

      
      <glyph glyph-name="uni1EC8" unicode="&#x1EC8;" d="M90 0L90 700L164 700L164 0L90 0ZM92 767L92 783Q92 804 104.50 818Q117 832 140 847L140 847Q157 859 165.50 867Q174 875 174 886L174 886L174 897Q174 930 138 930L138 930L118 930Q76 930 76 888L76 888L18 888Q18 982 118 982L118 982L138 982Q185 982 209.50 960.50Q234 939 234 897L234 897L234 886Q234 863 221 848Q208 833 184 816L184 816Q169 806 161.50 798.50Q154 791 154 783L154 783L154 767L92 767Z"  horiz-adv-x="254" vert-adv-y="1000"  />

      
      <glyph glyph-name="uni012A" unicode="&#x012A;" d="M90 0L90 700L164 700L164 0L90 0ZM0 791L0 843L255 843L255 791L0 791Z"  horiz-adv-x="254" vert-adv-y="1000"  />

      
      <glyph glyph-name="uni012E" unicode="&#x012E;" d="M90 0L90 700L164 700L164 0L90 0ZM140-209Q92-209 63.50-183Q35-157 35-113L35-113L35-103Q35-72 51.50-43.50Q68-15 96 0L96 0L164 0Q133-16 115-42.50Q97-69 97-99L97-99L97-109Q97-129 109.50-142Q122-155 145-155L145-155L155-155Q168-155 183.50-149.50Q199-144 211-135L211-135L211-191Q201-199 183.50-204Q166-209 150-209L150-209L140-209Z"  horiz-adv-x="254" vert-adv-y="1000"  />

      
      <glyph glyph-name="uni0128" unicode="&#x0128;" d="M90 0L90 700L164 700L164 0L90 0ZM187 773Q164 773 147.50 783.50Q131 794 113 813L113 813Q97 828 89 834Q81 840 70 840L70 840L60 840Q45 840 34 826Q23 812 22 789L22 789L-34 789Q-33 834-6.50 862Q20 890 60 890L60 890L70 890Q95 890 112.50 879Q130 868 150 848L150 848Q162 835 170 829Q178 823 187 823L187 823L197 823Q211 823 221.50 837Q232 851 233 874L233 874L289 874Q288 829 262 801Q236 773 197 773L197 773L187 773Z"  horiz-adv-x="254" vert-adv-y="1000"  />

      
      <glyph glyph-name="uni4a" unicode="&#x4a;" d="M225-8Q168-8 125 20.50Q82 49 58 100.50Q34 152 34 219L34 219L108 219Q108 146 140 102Q172 58 225 58L225 58L312 58Q368 58 400 104Q432 150 432 232L432 232L432 700L506 700L506 232Q506 119 455 55.50Q404-8 312-8L312-8L225-8Z"  horiz-adv-x="578" vert-adv-y="1000"  />

      
      <glyph glyph-name="uni0134" unicode="&#x0134;" d="M225-8Q168-8 125 20.50Q82 49 58 100.50Q34 152 34 219L34 219L108 219Q108 146 140 102Q172 58 225 58L225 58L312 58Q368 58 400 104Q432 150 432 232L432 232L432 700L506 700L506 232Q506 119 455 55.50Q404-8 312-8L312-8L225-8ZM317 781L441 943L496 943L621 781L553 781L469 893L385 781L317 781Z"  horiz-adv-x="578" vert-adv-y="1000"  />

      
      <glyph glyph-name="uni4b" unicode="&#x4b;" d="M604 0L512 0L242 335L154 242L154 0L80 0L80 700L154 700L154 334L494 700L586 700L293 389L604 0Z"  horiz-adv-x="630" vert-adv-y="1000"  />

      
      <glyph glyph-name="uni0136" unicode="&#x0136;" d="M604 0L512 0L242 335L154 242L154 0L80 0L80 700L154 700L154 334L494 700L586 700L293 389L604 0ZM254-280L213-224L228-214Q258-194 272.50-167.50Q287-141 287-106L287-106L287-75L359-75L359-106Q359-162 338-201Q317-240 273-268L273-268L254-280Z"  horiz-adv-x="630" vert-adv-y="1000"  />

      
      <glyph glyph-name="uni4c" unicode="&#x4c;" d="M145 0Q114 0 97 17Q80 34 80 65L80 65L80 700L154 700L154 66L534 66L534 0L145 0Z"  horiz-adv-x="560" vert-adv-y="1000"  />

      
      <glyph glyph-name="uni0139" unicode="&#x0139;" d="M145 0Q114 0 97 17Q80 34 80 65L80 65L80 700L154 700L154 66L534 66L534 0L145 0ZM86 781L169 933L251 933L152 781L86 781Z"  horiz-adv-x="560" vert-adv-y="1000"  />

      
      <glyph glyph-name="uni013D" unicode="&#x013D;" d="M145 0Q114 0 97 17Q80 34 80 65L80 65L80 700L154 700L154 66L534 66L534 0L145 0ZM427 495L386 551L401 561Q431 581 445.50 607.50Q460 634 460 669L460 669L460 700L532 700L532 669Q532 613 511 574Q490 535 446 507L446 507L427 495Z"  horiz-adv-x="560" vert-adv-y="1000"  />

      
      <glyph glyph-name="uni013B" unicode="&#x013B;" d="M145 0Q114 0 97 17Q80 34 80 65L80 65L80 700L154 700L154 66L534 66L534 0L145 0ZM241-280L200-224L215-214Q245-194 259.50-167.50Q274-141 274-106L274-106L274-75L346-75L346-106Q346-162 325-201Q304-240 260-268L260-268L241-280Z"  horiz-adv-x="560" vert-adv-y="1000"  />

      
      <glyph glyph-name="uni013F" unicode="&#x013F;" d="M145 0Q114 0 97 17Q80 34 80 65L80 65L80 700L154 700L154 66L534 66L534 0L145 0ZM390 223Q366 223 351 238Q336 253 336 277L336 277Q336 301 351 316Q366 331 390 331L390 331Q414 331 429 316Q444 301 444 277L444 277Q444 253 429 238Q414 223 390 223L390 223Z"  horiz-adv-x="560" vert-adv-y="1000"  />

      
      <glyph glyph-name="uni1E36" unicode="&#x1E36;" d="M145 0Q114 0 97 17Q80 34 80 65L80 65L80 700L154 700L154 66L534 66L534 0L145 0ZM310-179Q286-179 271-164Q256-149 256-125L256-125Q256-101 271-86Q286-71 310-71L310-71Q334-71 349-86Q364-101 364-125L364-125Q364-149 349-164Q334-179 310-179L310-179Z"  horiz-adv-x="560" vert-adv-y="1000"  />

      
      <glyph glyph-name="uni1E38" unicode="&#x1E38;" d="M145 0Q114 0 97 17Q80 34 80 65L80 65L80 700L154 700L154 66L534 66L534 0L145 0ZM310-179Q286-179 271-164Q256-149 256-125L256-125Q256-101 271-86Q286-71 310-71L310-71Q334-71 349-86Q364-101 364-125L364-125Q364-149 349-164Q334-179 310-179L310-179ZM-10 791L-10 843L245 843L245 791L-10 791Z"  horiz-adv-x="560" vert-adv-y="1000"  />

      
      <glyph glyph-name="uni1E3A" unicode="&#x1E3A;" d="M145 0Q114 0 97 17Q80 34 80 65L80 65L80 700L154 700L154 66L534 66L534 0L145 0ZM183-126L183-74L438-74L438-126L183-126Z"  horiz-adv-x="560" vert-adv-y="1000"  />

      
      <glyph glyph-name="uni0141" unicode="&#x0141;" d="M184 66L564 66L564 0L175 0Q144 0 127 17Q110 34 110 65L110 65L110 265L26 216L26 285L110 334L110 700L184 700L184 378L316 455L316 386L184 309L184 66Z"  horiz-adv-x="590" vert-adv-y="1000"  />

      
      <glyph glyph-name="uni4d" unicode="&#x4d;" d="M80 0L80 700L151 700L401 235L644 700L715 700L715 0L642 0L642 562L440 178Q429 158 421 150.50Q413 143 403 143L403 143L381 143L153 562L153 0L80 0Z"  horiz-adv-x="795" vert-adv-y="1000"  />

      
      <glyph glyph-name="uni1E42" unicode="&#x1E42;" d="M80 0L80 700L151 700L401 235L644 700L715 700L715 0L642 0L642 562L440 178Q429 158 421 150.50Q413 143 403 143L403 143L381 143L153 562L153 0L80 0ZM398-179Q374-179 359-164Q344-149 344-125L344-125Q344-101 359-86Q374-71 398-71L398-71Q422-71 437-86Q452-101 452-125L452-125Q452-149 437-164Q422-179 398-179L398-179Z"  horiz-adv-x="795" vert-adv-y="1000"  />

      
      <glyph glyph-name="uni4e" unicode="&#x4e;" d="M80 0L80 700L150 700L538 117L538 700L610 700L610 0L540 0L152 579L152 0L80 0Z"  horiz-adv-x="690" vert-adv-y="1000"  />

      
      <glyph glyph-name="uni0143" unicode="&#x0143;" d="M80 0L80 700L150 700L538 117L538 700L610 700L610 0L540 0L152 579L152 0L80 0ZM314 781L397 933L479 933L380 781L314 781Z"  horiz-adv-x="690" vert-adv-y="1000"  />

      
      <glyph glyph-name="uni0147" unicode="&#x0147;" d="M80 0L80 700L150 700L538 117L538 700L610 700L610 0L540 0L152 579L152 0L80 0ZM317 781L193 943L261 943L345 831L429 943L497 943L372 781L317 781Z"  horiz-adv-x="690" vert-adv-y="1000"  />

      
      <glyph glyph-name="uni0145" unicode="&#x0145;" d="M80 0L80 700L150 700L538 117L538 700L610 700L610 0L540 0L152 579L152 0L80 0ZM277-280L236-224L251-214Q281-194 295.50-167.50Q310-141 310-106L310-106L310-75L382-75L382-106Q382-162 361-201Q340-240 296-268L296-268L277-280Z"  horiz-adv-x="690" vert-adv-y="1000"  />

      
      <glyph glyph-name="uni1E44" unicode="&#x1E44;" d="M80 0L80 700L150 700L538 117L538 700L610 700L610 0L540 0L152 579L152 0L80 0ZM345 781Q321 781 306 796Q291 811 291 835L291 835Q291 859 306 874Q321 889 345 889L345 889Q369 889 384 874Q399 859 399 835L399 835Q399 811 384 796Q369 781 345 781L345 781Z"  horiz-adv-x="690" vert-adv-y="1000"  />

      
      <glyph glyph-name="uni1E46" unicode="&#x1E46;" d="M80 0L80 700L150 700L538 117L538 700L610 700L610 0L540 0L152 579L152 0L80 0ZM346-179Q322-179 307-164Q292-149 292-125L292-125Q292-101 307-86Q322-71 346-71L346-71Q370-71 385-86Q400-101 400-125L400-125Q400-149 385-164Q370-179 346-179L346-179Z"  horiz-adv-x="690" vert-adv-y="1000"  />

      
      <glyph glyph-name="uni014A" unicode="&#x014A;" d="M406-199L406-135L441-135Q493-135 515.50-107Q538-79 538-15L538-15L538 3L152 579L152 0L80 0L80 700L150 700L538 117L538 700L610 700L610-10Q610-111 571-155Q532-199 441-199L441-199L406-199Z"  horiz-adv-x="690" vert-adv-y="1000"  />

      
      <glyph glyph-name="uni1E48" unicode="&#x1E48;" d="M80 0L80 700L150 700L538 117L538 700L610 700L610 0L540 0L152 579L152 0L80 0ZM219-126L219-74L474-74L474-126L219-126Z"  horiz-adv-x="690" vert-adv-y="1000"  />

      
      <glyph glyph-name="unid1" unicode="&#xd1;" d="M80 0L80 700L150 700L538 117L538 700L610 700L610 0L540 0L152 579L152 0L80 0ZM405 773Q382 773 365.50 783.50Q349 794 331 813L331 813Q315 828 307 834Q299 840 288 840L288 840L278 840Q263 840 252 826Q241 812 240 789L240 789L184 789Q185 834 211.50 862Q238 890 278 890L278 890L288 890Q313 890 330.50 879Q348 868 368 848L368 848Q380 835 388 829Q396 823 405 823L405 823L415 823Q429 823 439.50 837Q450 851 451 874L451 874L507 874Q506 829 480 801Q454 773 415 773L415 773L405 773Z"  horiz-adv-x="690" vert-adv-y="1000"  />

      
      <glyph glyph-name="uni4f" unicode="&#x4f;" d="M294-8Q225-8 172 23Q119 54 89.50 111Q60 168 60 243L60 243L60 457Q60 532 89.50 589Q119 646 172 677Q225 708 295 708L295 708L401 708Q471 708 524 677Q577 646 606.50 589Q636 532 636 457L636 457L636 243Q636 168 606.50 111.50Q577 55 523.50 23.50Q470-8 401-8L401-8L294-8ZM296 58L399 58Q472 58 517 109Q562 160 562 243L562 243L562 457Q562 540 517 591Q472 642 399 642L399 642L297 642Q224 642 179 591Q134 540 134 457L134 457L134 243Q134 160 178.50 109Q223 58 296 58L296 58Z"  horiz-adv-x="696" vert-adv-y="1000"  />

      
      <glyph glyph-name="unid3" unicode="&#xd3;" d="M294-8Q225-8 172 23Q119 54 89.50 111Q60 168 60 243L60 243L60 457Q60 532 89.50 589Q119 646 172 677Q225 708 295 708L295 708L401 708Q471 708 524 677Q577 646 606.50 589Q636 532 636 457L636 457L636 243Q636 168 606.50 111.50Q577 55 523.50 23.50Q470-8 401-8L401-8L294-8ZM296 58L399 58Q472 58 517 109Q562 160 562 243L562 243L562 457Q562 540 517 591Q472 642 399 642L399 642L297 642Q224 642 179 591Q134 540 134 457L134 457L134 243Q134 160 178.50 109Q223 58 296 58L296 58ZM317 781L400 933L482 933L383 781L317 781Z"  horiz-adv-x="696" vert-adv-y="1000"  />

      
      <glyph glyph-name="uni014E" unicode="&#x014E;" d="M294-8Q225-8 172 23Q119 54 89.50 111Q60 168 60 243L60 243L60 457Q60 532 89.50 589Q119 646 172 677Q225 708 295 708L295 708L401 708Q471 708 524 677Q577 646 606.50 589Q636 532 636 457L636 457L636 243Q636 168 606.50 111.50Q577 55 523.50 23.50Q470-8 401-8L401-8L294-8ZM296 58L399 58Q472 58 517 109Q562 160 562 243L562 243L562 457Q562 540 517 591Q472 642 399 642L399 642L297 642Q224 642 179 591Q134 540 134 457L134 457L134 243Q134 160 178.50 109Q223 58 296 58L296 58ZM342 773Q280 773 241.50 809Q203 845 203 904L203 904L203 912L261 912L261 904Q261 867 283 845Q305 823 342 823L342 823L354 823Q391 823 413.50 845Q436 867 436 904L436 904L436 912L493 912L493 904Q493 845 454.50 809Q416 773 354 773L354 773L342 773Z"  horiz-adv-x="696" vert-adv-y="1000"  />

      
      <glyph glyph-name="uni01D1" unicode="&#x01D1;" d="M294-8Q225-8 172 23Q119 54 89.50 111Q60 168 60 243L60 243L60 457Q60 532 89.50 589Q119 646 172 677Q225 708 295 708L295 708L401 708Q471 708 524 677Q577 646 606.50 589Q636 532 636 457L636 457L636 243Q636 168 606.50 111.50Q577 55 523.50 23.50Q470-8 401-8L401-8L294-8ZM296 58L399 58Q472 58 517 109Q562 160 562 243L562 243L562 457Q562 540 517 591Q472 642 399 642L399 642L297 642Q224 642 179 591Q134 540 134 457L134 457L134 243Q134 160 178.50 109Q223 58 296 58L296 58ZM320 781L196 943L264 943L348 831L432 943L500 943L375 781L320 781Z"  horiz-adv-x="696" vert-adv-y="1000"  />

      
      <glyph glyph-name="unid4" unicode="&#xd4;" d="M294-8Q225-8 172 23Q119 54 89.50 111Q60 168 60 243L60 243L60 457Q60 532 89.50 589Q119 646 172 677Q225 708 295 708L295 708L401 708Q471 708 524 677Q577 646 606.50 589Q636 532 636 457L636 457L636 243Q636 168 606.50 111.50Q577 55 523.50 23.50Q470-8 401-8L401-8L294-8ZM296 58L399 58Q472 58 517 109Q562 160 562 243L562 243L562 457Q562 540 517 591Q472 642 399 642L399 642L297 642Q224 642 179 591Q134 540 134 457L134 457L134 243Q134 160 178.50 109Q223 58 296 58L296 58ZM196 781L320 943L375 943L500 781L432 781L348 893L264 781L196 781Z"  horiz-adv-x="696" vert-adv-y="1000"  />

      
      <glyph glyph-name="uni1ED0" unicode="&#x1ED0;" d="M294-8Q225-8 172 23Q119 54 89.50 111Q60 168 60 243L60 243L60 457Q60 532 89.50 589Q119 646 172 677Q225 708 295 708L295 708L401 708Q471 708 524 677Q577 646 606.50 589Q636 532 636 457L636 457L636 243Q636 168 606.50 111.50Q577 55 523.50 23.50Q470-8 401-8L401-8L294-8ZM296 58L399 58Q472 58 517 109Q562 160 562 243L562 243L562 457Q562 540 517 591Q472 642 399 642L399 642L297 642Q224 642 179 591Q134 540 134 457L134 457L134 243Q134 160 178.50 109Q223 58 296 58L296 58ZM456 933L520 1049L590 1049L514 933L456 933ZM196 781L320 943L375 943L500 781L432 781L348 893L264 781L196 781Z"  horiz-adv-x="696" vert-adv-y="1000"  />

      
      <glyph glyph-name="uni1ED8" unicode="&#x1ED8;" d="M294-8Q225-8 172 23Q119 54 89.50 111Q60 168 60 243L60 243L60 457Q60 532 89.50 589Q119 646 172 677Q225 708 295 708L295 708L401 708Q471 708 524 677Q577 646 606.50 589Q636 532 636 457L636 457L636 243Q636 168 606.50 111.50Q577 55 523.50 23.50Q470-8 401-8L401-8L294-8ZM296 58L399 58Q472 58 517 109Q562 160 562 243L562 243L562 457Q562 540 517 591Q472 642 399 642L399 642L297 642Q224 642 179 591Q134 540 134 457L134 457L134 243Q134 160 178.50 109Q223 58 296 58L296 58ZM348-179Q324-179 309-164Q294-149 294-125L294-125Q294-101 309-86Q324-71 348-71L348-71Q372-71 387-86Q402-101 402-125L402-125Q402-149 387-164Q372-179 348-179L348-179ZM196 781L320 943L375 943L500 781L432 781L348 893L264 781L196 781Z"  horiz-adv-x="696" vert-adv-y="1000"  />

      
      <glyph glyph-name="uni1ED2" unicode="&#x1ED2;" d="M294-8Q225-8 172 23Q119 54 89.50 111Q60 168 60 243L60 243L60 457Q60 532 89.50 589Q119 646 172 677Q225 708 295 708L295 708L401 708Q471 708 524 677Q577 646 606.50 589Q636 532 636 457L636 457L636 243Q636 168 606.50 111.50Q577 55 523.50 23.50Q470-8 401-8L401-8L294-8ZM296 58L399 58Q472 58 517 109Q562 160 562 243L562 243L562 457Q562 540 517 591Q472 642 399 642L399 642L297 642Q224 642 179 591Q134 540 134 457L134 457L134 243Q134 160 178.50 109Q223 58 296 58L296 58ZM482 933L406 1049L476 1049L540 933L482 933ZM196 781L320 943L375 943L500 781L432 781L348 893L264 781L196 781Z"  horiz-adv-x="696" vert-adv-y="1000"  />

      
      <glyph glyph-name="uni1ED4" unicode="&#x1ED4;" d="M294-8Q225-8 172 23Q119 54 89.50 111Q60 168 60 243L60 243L60 457Q60 532 89.50 589Q119 646 172 677Q225 708 295 708L295 708L401 708Q471 708 524 677Q577 646 606.50 589Q636 532 636 457L636 457L636 243Q636 168 606.50 111.50Q577 55 523.50 23.50Q470-8 401-8L401-8L294-8ZM296 58L399 58Q472 58 517 109Q562 160 562 243L562 243L562 457Q562 540 517 591Q472 642 399 642L399 642L297 642Q224 642 179 591Q134 540 134 457L134 457L134 243Q134 160 178.50 109Q223 58 296 58L296 58ZM459 923L459 931Q459 948 469.50 959.50Q480 971 499 983L499 983Q513 993 520 999.50Q527 1006 527 1015L527 1015L527 1024Q527 1037 519 1044Q511 1051 497 1051L497 1051L481 1051Q446 1051 446 1017L446 1017L398 1017Q398 1095 481 1095L481 1095L497 1095Q577 1095 577 1024L577 1024L577 1015Q577 996 565.50 983Q554 970 535 958L535 958Q523 950 517 944Q511 938 511 931L511 931L511 923L459 923ZM196 781L320 943L375 943L500 781L432 781L348 893L264 781L196 781Z"  horiz-adv-x="696" vert-adv-y="1000"  />

      
      <glyph glyph-name="uni1ED6" unicode="&#x1ED6;" d="M294-8Q225-8 172 23Q119 54 89.50 111Q60 168 60 243L60 243L60 457Q60 532 89.50 589Q119 646 172 677Q225 708 295 708L295 708L401 708Q471 708 524 677Q577 646 606.50 589Q636 532 636 457L636 457L636 243Q636 168 606.50 111.50Q577 55 523.50 23.50Q470-8 401-8L401-8L294-8ZM296 58L399 58Q472 58 517 109Q562 160 562 243L562 243L562 457Q562 540 517 591Q472 642 399 642L399 642L297 642Q224 642 179 591Q134 540 134 457L134 457L134 243Q134 160 178.50 109Q223 58 296 58L296 58ZM403 978Q383 978 369 987Q355 996 338 1013L338 1013Q325 1026 317 1031.50Q309 1037 300 1037L300 1037L291 1037Q278 1037 269 1024.50Q260 1012 259 992L259 992L210 992Q211 1032 233.50 1056.50Q256 1081 291 1081L291 1081L300 1081Q323 1081 338.50 1071Q354 1061 370 1044L370 1044Q382 1032 388.50 1027Q395 1022 403 1022L403 1022L412 1022Q424 1022 432.50 1034.50Q441 1047 442 1067L442 1067L491 1067Q490 1027 468 1002.50Q446 978 412 978L412 978L403 978ZM196 781L320 943L375 943L500 781L432 781L348 893L264 781L196 781Z"  horiz-adv-x="696" vert-adv-y="1000"  />

      
      <glyph glyph-name="unid6" unicode="&#xd6;" d="M294-8Q225-8 172 23Q119 54 89.50 111Q60 168 60 243L60 243L60 457Q60 532 89.50 589Q119 646 172 677Q225 708 295 708L295 708L401 708Q471 708 524 677Q577 646 606.50 589Q636 532 636 457L636 457L636 243Q636 168 606.50 111.50Q577 55 523.50 23.50Q470-8 401-8L401-8L294-8ZM296 58L399 58Q472 58 517 109Q562 160 562 243L562 243L562 457Q562 540 517 591Q472 642 399 642L399 642L297 642Q224 642 179 591Q134 540 134 457L134 457L134 243Q134 160 178.50 109Q223 58 296 58L296 58ZM248 781Q226 781 212.50 794.50Q199 808 199 830L199 830Q199 852 212.50 865.50Q226 879 248 879L248 879Q270 879 283.50 865.50Q297 852 297 830L297 830Q297 808 283.50 794.50Q270 781 248 781L248 781ZM447 781Q425 781 411.50 794.50Q398 808 398 830L398 830Q398 852 411.50 865.50Q425 879 447 879L447 879Q469 879 482.50 865.50Q496 852 496 830L496 830Q496 808 482.50 794.50Q469 781 447 781L447 781Z"  horiz-adv-x="696" vert-adv-y="1000"  />

      
      <glyph glyph-name="uni1ECC" unicode="&#x1ECC;" d="M294-8Q225-8 172 23Q119 54 89.50 111Q60 168 60 243L60 243L60 457Q60 532 89.50 589Q119 646 172 677Q225 708 295 708L295 708L401 708Q471 708 524 677Q577 646 606.50 589Q636 532 636 457L636 457L636 243Q636 168 606.50 111.50Q577 55 523.50 23.50Q470-8 401-8L401-8L294-8ZM296 58L399 58Q472 58 517 109Q562 160 562 243L562 243L562 457Q562 540 517 591Q472 642 399 642L399 642L297 642Q224 642 179 591Q134 540 134 457L134 457L134 243Q134 160 178.50 109Q223 58 296 58L296 58ZM348-179Q324-179 309-164Q294-149 294-125L294-125Q294-101 309-86Q324-71 348-71L348-71Q372-71 387-86Q402-101 402-125L402-125Q402-149 387-164Q372-179 348-179L348-179Z"  horiz-adv-x="696" vert-adv-y="1000"  />

      
      <glyph glyph-name="unid2" unicode="&#xd2;" d="M294-8Q225-8 172 23Q119 54 89.50 111Q60 168 60 243L60 243L60 457Q60 532 89.50 589Q119 646 172 677Q225 708 295 708L295 708L401 708Q471 708 524 677Q577 646 606.50 589Q636 532 636 457L636 457L636 243Q636 168 606.50 111.50Q577 55 523.50 23.50Q470-8 401-8L401-8L294-8ZM296 58L399 58Q472 58 517 109Q562 160 562 243L562 243L562 457Q562 540 517 591Q472 642 399 642L399 642L297 642Q224 642 179 591Q134 540 134 457L134 457L134 243Q134 160 178.50 109Q223 58 296 58L296 58ZM316 781L217 933L299 933L382 781L316 781Z"  horiz-adv-x="696" vert-adv-y="1000"  />

      
      <glyph glyph-name="uni1ECE" unicode="&#x1ECE;" d="M294-8Q225-8 172 23Q119 54 89.50 111Q60 168 60 243L60 243L60 457Q60 532 89.50 589Q119 646 172 677Q225 708 295 708L295 708L401 708Q471 708 524 677Q577 646 606.50 589Q636 532 636 457L636 457L636 243Q636 168 606.50 111.50Q577 55 523.50 23.50Q470-8 401-8L401-8L294-8ZM296 58L399 58Q472 58 517 109Q562 160 562 243L562 243L562 457Q562 540 517 591Q472 642 399 642L399 642L297 642Q224 642 179 591Q134 540 134 457L134 457L134 243Q134 160 178.50 109Q223 58 296 58L296 58ZM313 767L313 783Q313 804 325.50 818Q338 832 361 847L361 847Q378 859 386.50 867Q395 875 395 886L395 886L395 897Q395 930 359 930L359 930L339 930Q297 930 297 888L297 888L239 888Q239 982 339 982L339 982L359 982Q406 982 430.50 960.50Q455 939 455 897L455 897L455 886Q455 863 442 848Q429 833 405 816L405 816Q390 806 382.50 798.50Q375 791 375 783L375 783L375 767L313 767Z"  horiz-adv-x="696" vert-adv-y="1000"  />

      
      <glyph glyph-name="uni01A0" unicode="&#x01A0;" d="M713 698L781 698L781 686Q781 605 741.50 559.50Q702 514 631 513L631 513Q636 483 636 457L636 457L636 243Q636 168 606.50 111.50Q577 55 523.50 23.50Q470-8 401-8L401-8L294-8Q225-8 172 23Q119 54 89.50 111Q60 168 60 243L60 243L60 457Q60 532 89.50 589Q119 646 172 677Q225 708 295 708L295 708L401 708Q476 708 531.50 672.50Q587 637 614 573L614 573L632 573Q672 573 692.50 602Q713 631 713 686L713 686L713 698ZM562 243L562 457Q562 540 517 591Q472 642 399 642L399 642L297 642Q224 642 179 591Q134 540 134 457L134 457L134 243Q134 160 178.50 109Q223 58 296 58L296 58L399 58Q472 58 517 109Q562 160 562 243L562 243Z"  horiz-adv-x="766" vert-adv-y="1000"  />

      
      <glyph glyph-name="uni1EDA" unicode="&#x1EDA;" d="M713 698L781 698L781 686Q781 605 741.50 559.50Q702 514 631 513L631 513Q636 483 636 457L636 457L636 243Q636 168 606.50 111.50Q577 55 523.50 23.50Q470-8 401-8L401-8L294-8Q225-8 172 23Q119 54 89.50 111Q60 168 60 243L60 243L60 457Q60 532 89.50 589Q119 646 172 677Q225 708 295 708L295 708L401 708Q476 708 531.50 672.50Q587 637 614 573L614 573L632 573Q672 573 692.50 602Q713 631 713 686L713 686L713 698ZM562 243L562 457Q562 540 517 591Q472 642 399 642L399 642L297 642Q224 642 179 591Q134 540 134 457L134 457L134 243Q134 160 178.50 109Q223 58 296 58L296 58L399 58Q472 58 517 109Q562 160 562 243L562 243ZM317 781L400 933L482 933L383 781L317 781Z"  horiz-adv-x="766" vert-adv-y="1000"  />

      
      <glyph glyph-name="uni1EE2" unicode="&#x1EE2;" d="M713 698L781 698L781 686Q781 605 741.50 559.50Q702 514 631 513L631 513Q636 483 636 457L636 457L636 243Q636 168 606.50 111.50Q577 55 523.50 23.50Q470-8 401-8L401-8L294-8Q225-8 172 23Q119 54 89.50 111Q60 168 60 243L60 243L60 457Q60 532 89.50 589Q119 646 172 677Q225 708 295 708L295 708L401 708Q476 708 531.50 672.50Q587 637 614 573L614 573L632 573Q672 573 692.50 602Q713 631 713 686L713 686L713 698ZM562 243L562 457Q562 540 517 591Q472 642 399 642L399 642L297 642Q224 642 179 591Q134 540 134 457L134 457L134 243Q134 160 178.50 109Q223 58 296 58L296 58L399 58Q472 58 517 109Q562 160 562 243L562 243ZM348-179Q324-179 309-164Q294-149 294-125L294-125Q294-101 309-86Q324-71 348-71L348-71Q372-71 387-86Q402-101 402-125L402-125Q402-149 387-164Q372-179 348-179L348-179Z"  horiz-adv-x="766" vert-adv-y="1000"  />

      
      <glyph glyph-name="uni1EDC" unicode="&#x1EDC;" d="M713 698L781 698L781 686Q781 605 741.50 559.50Q702 514 631 513L631 513Q636 483 636 457L636 457L636 243Q636 168 606.50 111.50Q577 55 523.50 23.50Q470-8 401-8L401-8L294-8Q225-8 172 23Q119 54 89.50 111Q60 168 60 243L60 243L60 457Q60 532 89.50 589Q119 646 172 677Q225 708 295 708L295 708L401 708Q476 708 531.50 672.50Q587 637 614 573L614 573L632 573Q672 573 692.50 602Q713 631 713 686L713 686L713 698ZM562 243L562 457Q562 540 517 591Q472 642 399 642L399 642L297 642Q224 642 179 591Q134 540 134 457L134 457L134 243Q134 160 178.50 109Q223 58 296 58L296 58L399 58Q472 58 517 109Q562 160 562 243L562 243ZM316 781L217 933L299 933L382 781L316 781Z"  horiz-adv-x="766" vert-adv-y="1000"  />

      
      <glyph glyph-name="uni1EDE" unicode="&#x1EDE;" d="M713 698L781 698L781 686Q781 605 741.50 559.50Q702 514 631 513L631 513Q636 483 636 457L636 457L636 243Q636 168 606.50 111.50Q577 55 523.50 23.50Q470-8 401-8L401-8L294-8Q225-8 172 23Q119 54 89.50 111Q60 168 60 243L60 243L60 457Q60 532 89.50 589Q119 646 172 677Q225 708 295 708L295 708L401 708Q476 708 531.50 672.50Q587 637 614 573L614 573L632 573Q672 573 692.50 602Q713 631 713 686L713 686L713 698ZM562 243L562 457Q562 540 517 591Q472 642 399 642L399 642L297 642Q224 642 179 591Q134 540 134 457L134 457L134 243Q134 160 178.50 109Q223 58 296 58L296 58L399 58Q472 58 517 109Q562 160 562 243L562 243ZM313 767L313 783Q313 804 325.50 818Q338 832 361 847L361 847Q378 859 386.50 867Q395 875 395 886L395 886L395 897Q395 930 359 930L359 930L339 930Q297 930 297 888L297 888L239 888Q239 982 339 982L339 982L359 982Q406 982 430.50 960.50Q455 939 455 897L455 897L455 886Q455 863 442 848Q429 833 405 816L405 816Q390 806 382.50 798.50Q375 791 375 783L375 783L375 767L313 767Z"  horiz-adv-x="766" vert-adv-y="1000"  />

      
      <glyph glyph-name="uni1EE0" unicode="&#x1EE0;" d="M713 698L781 698L781 686Q781 605 741.50 559.50Q702 514 631 513L631 513Q636 483 636 457L636 457L636 243Q636 168 606.50 111.50Q577 55 523.50 23.50Q470-8 401-8L401-8L294-8Q225-8 172 23Q119 54 89.50 111Q60 168 60 243L60 243L60 457Q60 532 89.50 589Q119 646 172 677Q225 708 295 708L295 708L401 708Q476 708 531.50 672.50Q587 637 614 573L614 573L632 573Q672 573 692.50 602Q713 631 713 686L713 686L713 698ZM562 243L562 457Q562 540 517 591Q472 642 399 642L399 642L297 642Q224 642 179 591Q134 540 134 457L134 457L134 243Q134 160 178.50 109Q223 58 296 58L296 58L399 58Q472 58 517 109Q562 160 562 243L562 243ZM408 773Q385 773 368.50 783.50Q352 794 334 813L334 813Q318 828 310 834Q302 840 291 840L291 840L281 840Q266 840 255 826Q244 812 243 789L243 789L187 789Q188 834 214.50 862Q241 890 281 890L281 890L291 890Q316 890 333.50 879Q351 868 371 848L371 848Q383 835 391 829Q399 823 408 823L408 823L418 823Q432 823 442.50 837Q453 851 454 874L454 874L510 874Q509 829 483 801Q457 773 418 773L418 773L408 773Z"  horiz-adv-x="766" vert-adv-y="1000"  />

      
      <glyph glyph-name="uni0150" unicode="&#x0150;" d="M294-8Q225-8 172 23Q119 54 89.50 111Q60 168 60 243L60 243L60 457Q60 532 89.50 589Q119 646 172 677Q225 708 295 708L295 708L401 708Q471 708 524 677Q577 646 606.50 589Q636 532 636 457L636 457L636 243Q636 168 606.50 111.50Q577 55 523.50 23.50Q470-8 401-8L401-8L294-8ZM296 58L399 58Q472 58 517 109Q562 160 562 243L562 243L562 457Q562 540 517 591Q472 642 399 642L399 642L297 642Q224 642 179 591Q134 540 134 457L134 457L134 243Q134 160 178.50 109Q223 58 296 58L296 58ZM243 781L322 933L400 933L305 781L243 781ZM372 781L451 933L529 933L434 781L372 781Z"  horiz-adv-x="696" vert-adv-y="1000"  />

      
      <glyph glyph-name="uni014C" unicode="&#x014C;" d="M294-8Q225-8 172 23Q119 54 89.50 111Q60 168 60 243L60 243L60 457Q60 532 89.50 589Q119 646 172 677Q225 708 295 708L295 708L401 708Q471 708 524 677Q577 646 606.50 589Q636 532 636 457L636 457L636 243Q636 168 606.50 111.50Q577 55 523.50 23.50Q470-8 401-8L401-8L294-8ZM296 58L399 58Q472 58 517 109Q562 160 562 243L562 243L562 457Q562 540 517 591Q472 642 399 642L399 642L297 642Q224 642 179 591Q134 540 134 457L134 457L134 243Q134 160 178.50 109Q223 58 296 58L296 58ZM221 791L221 843L476 843L476 791L221 791Z"  horiz-adv-x="696" vert-adv-y="1000"  />

      
      <glyph glyph-name="unid8" unicode="&#xd8;" d="M642 737L575 636Q636 567 636 457L636 457L636 243Q636 168 606.50 111.50Q577 55 523.50 23.50Q470-8 401-8L401-8L294-8Q223-8 168 25L168 25L121-45L54-45L125 61Q60 131 60 243L60 243L60 457Q60 532 89.50 589Q119 646 172 677Q225 708 295 708L295 708L401 708Q476 708 532 672L532 672L575 737L642 737ZM134 243Q134 173 167 124L167 124L493 613Q453 642 399 642L399 642L297 642Q224 642 179 591Q134 540 134 457L134 457L134 243ZM562 457Q562 523 532 572L532 572L207 84Q245 58 296 58L296 58L399 58Q472 58 517 109Q562 160 562 243L562 243L562 457Z"  horiz-adv-x="696" vert-adv-y="1000"  />

      
      <glyph glyph-name="uni01FE" unicode="&#x01FE;" d="M642 737L575 636Q636 567 636 457L636 457L636 243Q636 168 606.50 111.50Q577 55 523.50 23.50Q470-8 401-8L401-8L294-8Q223-8 168 25L168 25L121-45L54-45L125 61Q60 131 60 243L60 243L60 457Q60 532 89.50 589Q119 646 172 677Q225 708 295 708L295 708L401 708Q476 708 532 672L532 672L575 737L642 737ZM134 243Q134 173 167 124L167 124L493 613Q453 642 399 642L399 642L297 642Q224 642 179 591Q134 540 134 457L134 457L134 243ZM562 457Q562 523 532 572L532 572L207 84Q245 58 296 58L296 58L399 58Q472 58 517 109Q562 160 562 243L562 243L562 457ZM313 781L396 933L478 933L379 781L313 781Z"  horiz-adv-x="696" vert-adv-y="1000"  />

      
      <glyph glyph-name="unid5" unicode="&#xd5;" d="M294-8Q225-8 172 23Q119 54 89.50 111Q60 168 60 243L60 243L60 457Q60 532 89.50 589Q119 646 172 677Q225 708 295 708L295 708L401 708Q471 708 524 677Q577 646 606.50 589Q636 532 636 457L636 457L636 243Q636 168 606.50 111.50Q577 55 523.50 23.50Q470-8 401-8L401-8L294-8ZM296 58L399 58Q472 58 517 109Q562 160 562 243L562 243L562 457Q562 540 517 591Q472 642 399 642L399 642L297 642Q224 642 179 591Q134 540 134 457L134 457L134 243Q134 160 178.50 109Q223 58 296 58L296 58ZM408 773Q385 773 368.50 783.50Q352 794 334 813L334 813Q318 828 310 834Q302 840 291 840L291 840L281 840Q266 840 255 826Q244 812 243 789L243 789L187 789Q188 834 214.50 862Q241 890 281 890L281 890L291 890Q316 890 333.50 879Q351 868 371 848L371 848Q383 835 391 829Q399 823 408 823L408 823L418 823Q432 823 442.50 837Q453 851 454 874L454 874L510 874Q509 829 483 801Q457 773 418 773L418 773L408 773Z"  horiz-adv-x="696" vert-adv-y="1000"  />

      
      <glyph glyph-name="uni0152" unicode="&#x0152;" d="M294-8Q225-8 172 23.50Q119 55 89.50 112.50Q60 170 60 245L60 245L60 453Q60 528 89.50 586Q119 644 173 676Q227 708 297 708L297 708L405 708Q454 708 497 687.50Q540 667 568 631L568 631L568 700L1026 700L1026 636L642 636L642 390L986 390L986 326L642 326L642 64L1026 64L1026 0L635 0Q606 0 587.50 16Q569 32 569 57L569 57L569 82Q542 42 494.50 17Q447-8 398-8L398-8L294-8ZM296 58L396 58Q473 58 520.50 110.50Q568 163 568 249L568 249L568 453Q568 537 522.50 589.50Q477 642 403 642L403 642L299 642Q225 642 179.50 589.50Q134 537 134 453L134 453L134 245Q134 161 178.50 109.50Q223 58 296 58L296 58Z"  horiz-adv-x="1076" vert-adv-y="1000"  />

      
      <glyph glyph-name="uni50" unicode="&#x50;" d="M80 0L80 700L419 700Q497 700 544.50 656Q592 612 592 540L592 540L592 437Q592 360 541 312.50Q490 265 407 265L407 265L154 265L154 0L80 0ZM154 331L405 331Q456 331 487 360.50Q518 390 518 439L518 439L518 542Q518 583 490.50 608.50Q463 634 417 634L417 634L154 634L154 331Z"  horiz-adv-x="624" vert-adv-y="1000"  />

      
      <glyph glyph-name="unide" unicode="&#xde;" d="M419 574Q497 574 544.50 530.50Q592 487 592 416L592 416L592 313Q592 235 538.50 187Q485 139 397 139L397 139L154 139L154 0L80 0L80 700L154 700L154 574L419 574ZM518 315L518 418Q518 459 490.50 483.50Q463 508 417 508L417 508L154 508L154 205L395 205Q450 205 484 235Q518 265 518 315L518 315Z"  horiz-adv-x="638" vert-adv-y="1000"  />

      
      <glyph glyph-name="uni51" unicode="&#x51;" d="M668 16L622-32L545 44Q480-8 395-8L395-8L291-8Q222-8 169.50 23Q117 54 88.50 111Q60 168 60 243L60 243L60 457Q60 532 89.50 588.50Q119 645 173 676.50Q227 708 296 708L296 708L402 708Q471 708 524 677Q577 646 606.50 589Q636 532 636 457L636 457L636 245Q636 158 590 93L590 93L668 16ZM393 58Q453 58 496 93L496 93L394 193L440 241L538 144Q562 189 562 245L562 245L562 457Q562 540 517.50 591Q473 642 400 642L400 642L298 642Q225 642 179.50 591Q134 540 134 457L134 457L134 243Q134 159 177.50 108.50Q221 58 293 58L293 58L393 58Z"  horiz-adv-x="700" vert-adv-y="1000"  />

      
      <glyph glyph-name="uni52" unicode="&#x52;" d="M80 0L80 700L420 700Q497 700 543.50 656.50Q590 613 590 542L590 542L590 469Q590 416 556 375.50Q522 335 465 318L465 318L465 317Q495 301 519.50 266Q544 231 557 187L557 187L612 0L536 0L481 187Q467 236 432.50 266Q398 296 357 296L357 296L154 296L154 0L80 0ZM154 362L394 362Q449 362 482.50 391.50Q516 421 516 469L516 469L516 546Q516 586 489 610Q462 634 418 634L418 634L154 634L154 362Z"  horiz-adv-x="650" vert-adv-y="1000"  />

      
      <glyph glyph-name="uni0154" unicode="&#x0154;" d="M80 0L80 700L420 700Q497 700 543.50 656.50Q590 613 590 542L590 542L590 469Q590 416 556 375.50Q522 335 465 318L465 318L465 317Q495 301 519.50 266Q544 231 557 187L557 187L612 0L536 0L481 187Q467 236 432.50 266Q398 296 357 296L357 296L154 296L154 0L80 0ZM154 362L394 362Q449 362 482.50 391.50Q516 421 516 469L516 469L516 546Q516 586 489 610Q462 634 418 634L418 634L154 634L154 362ZM291 781L374 933L456 933L357 781L291 781Z"  horiz-adv-x="650" vert-adv-y="1000"  />

      
      <glyph glyph-name="uni0158" unicode="&#x0158;" d="M80 0L80 700L420 700Q497 700 543.50 656.50Q590 613 590 542L590 542L590 469Q590 416 556 375.50Q522 335 465 318L465 318L465 317Q495 301 519.50 266Q544 231 557 187L557 187L612 0L536 0L481 187Q467 236 432.50 266Q398 296 357 296L357 296L154 296L154 0L80 0ZM154 362L394 362Q449 362 482.50 391.50Q516 421 516 469L516 469L516 546Q516 586 489 610Q462 634 418 634L418 634L154 634L154 362ZM294 781L170 943L238 943L322 831L406 943L474 943L349 781L294 781Z"  horiz-adv-x="650" vert-adv-y="1000"  />

      
      <glyph glyph-name="uni0156" unicode="&#x0156;" d="M80 0L80 700L420 700Q497 700 543.50 656.50Q590 613 590 542L590 542L590 469Q590 416 556 375.50Q522 335 465 318L465 318L465 317Q495 301 519.50 266Q544 231 557 187L557 187L612 0L536 0L481 187Q467 236 432.50 266Q398 296 357 296L357 296L154 296L154 0L80 0ZM154 362L394 362Q449 362 482.50 391.50Q516 421 516 469L516 469L516 546Q516 586 489 610Q462 634 418 634L418 634L154 634L154 362ZM268-280L227-224L242-214Q272-194 286.50-167.50Q301-141 301-106L301-106L301-75L373-75L373-106Q373-162 352-201Q331-240 287-268L287-268L268-280Z"  horiz-adv-x="650" vert-adv-y="1000"  />

      
      <glyph glyph-name="uni1E5A" unicode="&#x1E5A;" d="M80 0L80 700L420 700Q497 700 543.50 656.50Q590 613 590 542L590 542L590 469Q590 416 556 375.50Q522 335 465 318L465 318L465 317Q495 301 519.50 266Q544 231 557 187L557 187L612 0L536 0L481 187Q467 236 432.50 266Q398 296 357 296L357 296L154 296L154 0L80 0ZM154 362L394 362Q449 362 482.50 391.50Q516 421 516 469L516 469L516 546Q516 586 489 610Q462 634 418 634L418 634L154 634L154 362ZM337-179Q313-179 298-164Q283-149 283-125L283-125Q283-101 298-86Q313-71 337-71L337-71Q361-71 376-86Q391-101 391-125L391-125Q391-149 376-164Q361-179 337-179L337-179Z"  horiz-adv-x="650" vert-adv-y="1000"  />

      
      <glyph glyph-name="uni1E5C" unicode="&#x1E5C;" d="M80 0L80 700L420 700Q497 700 543.50 656.50Q590 613 590 542L590 542L590 469Q590 416 556 375.50Q522 335 465 318L465 318L465 317Q495 301 519.50 266Q544 231 557 187L557 187L612 0L536 0L481 187Q467 236 432.50 266Q398 296 357 296L357 296L154 296L154 0L80 0ZM154 362L394 362Q449 362 482.50 391.50Q516 421 516 469L516 469L516 546Q516 586 489 610Q462 634 418 634L418 634L154 634L154 362ZM337-179Q313-179 298-164Q283-149 283-125L283-125Q283-101 298-86Q313-71 337-71L337-71Q361-71 376-86Q391-101 391-125L391-125Q391-149 376-164Q361-179 337-179L337-179ZM195 791L195 843L450 843L450 791L195 791Z"  horiz-adv-x="650" vert-adv-y="1000"  />

      
      <glyph glyph-name="uni1E5E" unicode="&#x1E5E;" d="M80 0L80 700L420 700Q497 700 543.50 656.50Q590 613 590 542L590 542L590 469Q590 416 556 375.50Q522 335 465 318L465 318L465 317Q495 301 519.50 266Q544 231 557 187L557 187L612 0L536 0L481 187Q467 236 432.50 266Q398 296 357 296L357 296L154 296L154 0L80 0ZM154 362L394 362Q449 362 482.50 391.50Q516 421 516 469L516 469L516 546Q516 586 489 610Q462 634 418 634L418 634L154 634L154 362ZM210-126L210-74L465-74L465-126L210-126Z"  horiz-adv-x="650" vert-adv-y="1000"  />

      
      <glyph glyph-name="uni53" unicode="&#x53;" d="M259-8Q199-8 153 17.50Q107 43 81.50 89.50Q56 136 56 197L56 197L128 197Q128 135 164.50 96.50Q201 58 261 58L261 58L372 58Q431 58 467 84.50Q503 111 503 154L503 154L503 218Q503 252 476.50 276Q450 300 404 307L404 307L224 337Q148 350 106 391Q64 432 64 494L64 494L64 548Q64 621 118.50 664.50Q173 708 263 708L263 708L376 708Q461 708 513 656.50Q565 605 565 521L565 521L493 521Q493 576 461 609Q429 642 376 642L376 642L263 642Q206 642 172 616.50Q138 591 138 548L138 548L138 494Q138 459 163.50 435Q189 411 234 403L234 403L413 372Q491 358 534 318.50Q577 279 577 218L577 218L577 154Q577 81 521 36.50Q465-8 374-8L374-8L259-8Z"  horiz-adv-x="627" vert-adv-y="1000"  />

      
      <glyph glyph-name="uni015A" unicode="&#x015A;" d="M259-8Q199-8 153 17.50Q107 43 81.50 89.50Q56 136 56 197L56 197L128 197Q128 135 164.50 96.50Q201 58 261 58L261 58L372 58Q431 58 467 84.50Q503 111 503 154L503 154L503 218Q503 252 476.50 276Q450 300 404 307L404 307L224 337Q148 350 106 391Q64 432 64 494L64 494L64 548Q64 621 118.50 664.50Q173 708 263 708L263 708L376 708Q461 708 513 656.50Q565 605 565 521L565 521L493 521Q493 576 461 609Q429 642 376 642L376 642L263 642Q206 642 172 616.50Q138 591 138 548L138 548L138 494Q138 459 163.50 435Q189 411 234 403L234 403L413 372Q491 358 534 318.50Q577 279 577 218L577 218L577 154Q577 81 521 36.50Q465-8 374-8L374-8L259-8ZM287 781L370 933L452 933L353 781L287 781Z"  horiz-adv-x="627" vert-adv-y="1000"  />

      
      <glyph glyph-name="uni0160" unicode="&#x0160;" d="M259-8Q199-8 153 17.50Q107 43 81.50 89.50Q56 136 56 197L56 197L128 197Q128 135 164.50 96.50Q201 58 261 58L261 58L372 58Q431 58 467 84.50Q503 111 503 154L503 154L503 218Q503 252 476.50 276Q450 300 404 307L404 307L224 337Q148 350 106 391Q64 432 64 494L64 494L64 548Q64 621 118.50 664.50Q173 708 263 708L263 708L376 708Q461 708 513 656.50Q565 605 565 521L565 521L493 521Q493 576 461 609Q429 642 376 642L376 642L263 642Q206 642 172 616.50Q138 591 138 548L138 548L138 494Q138 459 163.50 435Q189 411 234 403L234 403L413 372Q491 358 534 318.50Q577 279 577 218L577 218L577 154Q577 81 521 36.50Q465-8 374-8L374-8L259-8ZM290 781L166 943L234 943L318 831L402 943L470 943L345 781L290 781Z"  horiz-adv-x="627" vert-adv-y="1000"  />

      
      <glyph glyph-name="uni015E" unicode="&#x015E;" d="M413 372Q491 358 534 318.50Q577 279 577 218L577 218L577 154Q577 81 521 36.50Q465-8 374-8L374-8L350-8L329-54L336-54Q375-54 398.50-75Q422-96 422-130L422-130L422-141Q422-178 393-200.50Q364-223 317-223L317-223L262-223L262-175L315-175Q337-175 351-165.50Q365-156 365-141L365-141L365-130Q365-115 352.50-105.50Q340-96 320-96L320-96L273-96L273-52L292-8L259-8Q199-8 153 17.50Q107 43 81.50 89.50Q56 136 56 197L56 197L128 197Q128 135 164.50 96.50Q201 58 261 58L261 58L372 58Q431 58 467 84.50Q503 111 503 154L503 154L503 218Q503 252 476.50 276Q450 300 404 307L404 307L224 337Q148 350 106 391Q64 432 64 494L64 494L64 548Q64 621 118.50 664.50Q173 708 263 708L263 708L376 708Q461 708 513 656.50Q565 605 565 521L565 521L493 521Q493 576 461 609Q429 642 376 642L376 642L263 642Q206 642 172 616.50Q138 591 138 548L138 548L138 494Q138 459 163.50 435Q189 411 234 403L234 403L413 372Z"  horiz-adv-x="627" vert-adv-y="1000"  />

      
      <glyph glyph-name="uni015C" unicode="&#x015C;" d="M259-8Q199-8 153 17.50Q107 43 81.50 89.50Q56 136 56 197L56 197L128 197Q128 135 164.50 96.50Q201 58 261 58L261 58L372 58Q431 58 467 84.50Q503 111 503 154L503 154L503 218Q503 252 476.50 276Q450 300 404 307L404 307L224 337Q148 350 106 391Q64 432 64 494L64 494L64 548Q64 621 118.50 664.50Q173 708 263 708L263 708L376 708Q461 708 513 656.50Q565 605 565 521L565 521L493 521Q493 576 461 609Q429 642 376 642L376 642L263 642Q206 642 172 616.50Q138 591 138 548L138 548L138 494Q138 459 163.50 435Q189 411 234 403L234 403L413 372Q491 358 534 318.50Q577 279 577 218L577 218L577 154Q577 81 521 36.50Q465-8 374-8L374-8L259-8ZM166 781L290 943L345 943L470 781L402 781L318 893L234 781L166 781Z"  horiz-adv-x="627" vert-adv-y="1000"  />

      
      <glyph glyph-name="uni0218" unicode="&#x0218;" d="M259-8Q199-8 153 17.50Q107 43 81.50 89.50Q56 136 56 197L56 197L128 197Q128 135 164.50 96.50Q201 58 261 58L261 58L372 58Q431 58 467 84.50Q503 111 503 154L503 154L503 218Q503 252 476.50 276Q450 300 404 307L404 307L224 337Q148 350 106 391Q64 432 64 494L64 494L64 548Q64 621 118.50 664.50Q173 708 263 708L263 708L376 708Q461 708 513 656.50Q565 605 565 521L565 521L493 521Q493 576 461 609Q429 642 376 642L376 642L263 642Q206 642 172 616.50Q138 591 138 548L138 548L138 494Q138 459 163.50 435Q189 411 234 403L234 403L413 372Q491 358 534 318.50Q577 279 577 218L577 218L577 154Q577 81 521 36.50Q465-8 374-8L374-8L259-8ZM259-280L218-224L233-214Q263-194 277.50-167.50Q292-141 292-106L292-106L292-75L364-75L364-106Q364-162 343-201Q322-240 278-268L278-268L259-280Z"  horiz-adv-x="627" vert-adv-y="1000"  />

      
      <glyph glyph-name="uni1E60" unicode="&#x1E60;" d="M259-8Q199-8 153 17.50Q107 43 81.50 89.50Q56 136 56 197L56 197L128 197Q128 135 164.50 96.50Q201 58 261 58L261 58L372 58Q431 58 467 84.50Q503 111 503 154L503 154L503 218Q503 252 476.50 276Q450 300 404 307L404 307L224 337Q148 350 106 391Q64 432 64 494L64 494L64 548Q64 621 118.50 664.50Q173 708 263 708L263 708L376 708Q461 708 513 656.50Q565 605 565 521L565 521L493 521Q493 576 461 609Q429 642 376 642L376 642L263 642Q206 642 172 616.50Q138 591 138 548L138 548L138 494Q138 459 163.50 435Q189 411 234 403L234 403L413 372Q491 358 534 318.50Q577 279 577 218L577 218L577 154Q577 81 521 36.50Q465-8 374-8L374-8L259-8ZM318 781Q294 781 279 796Q264 811 264 835L264 835Q264 859 279 874Q294 889 318 889L318 889Q342 889 357 874Q372 859 372 835L372 835Q372 811 357 796Q342 781 318 781L318 781Z"  horiz-adv-x="627" vert-adv-y="1000"  />

      
      <glyph glyph-name="uni1E62" unicode="&#x1E62;" d="M259-8Q199-8 153 17.50Q107 43 81.50 89.50Q56 136 56 197L56 197L128 197Q128 135 164.50 96.50Q201 58 261 58L261 58L372 58Q431 58 467 84.50Q503 111 503 154L503 154L503 218Q503 252 476.50 276Q450 300 404 307L404 307L224 337Q148 350 106 391Q64 432 64 494L64 494L64 548Q64 621 118.50 664.50Q173 708 263 708L263 708L376 708Q461 708 513 656.50Q565 605 565 521L565 521L493 521Q493 576 461 609Q429 642 376 642L376 642L263 642Q206 642 172 616.50Q138 591 138 548L138 548L138 494Q138 459 163.50 435Q189 411 234 403L234 403L413 372Q491 358 534 318.50Q577 279 577 218L577 218L577 154Q577 81 521 36.50Q465-8 374-8L374-8L259-8ZM328-179Q304-179 289-164Q274-149 274-125L274-125Q274-101 289-86Q304-71 328-71L328-71Q352-71 367-86Q382-101 382-125L382-125Q382-149 367-164Q352-179 328-179L328-179Z"  horiz-adv-x="627" vert-adv-y="1000"  />

      
      <glyph glyph-name="uni1E9E" unicode="&#x1E9E;" d="M399-8Q328-8 284 33.50Q240 75 240 142L240 142L310 142Q310 103 334.50 79.50Q359 56 399 56L399 56L449 56Q490 56 514.50 86Q539 116 539 166L539 166L539 196Q539 243 521 270Q503 297 462 311L462 311L333 353L333 402L472 636L277 636Q214 636 179 600Q144 564 144 504L144 504L144 0L72 0L72 504Q72 593 126.50 646.50Q181 700 277 700L277 700L552 700L552 641L406 395L502 362Q611 324 611 196L611 196L611 166Q611 87 566.50 39.50Q522-8 449-8L449-8L399-8Z"  horiz-adv-x="653" vert-adv-y="1000"  />

      
      <glyph glyph-name="uni018F" unicode="&#x018F;" d="M404 708Q476 708 531.50 677Q587 646 617.50 589.50Q648 533 648 459L648 459L648 255Q648 177 617.50 117.50Q587 58 531.50 25Q476-8 404-8L404-8L290-8Q222-8 169.50 24Q117 56 88.50 114Q60 172 60 248L60 248L60 360L574 360L574 459Q574 541 527.50 591.50Q481 642 404 642L404 642L298 642Q225 642 181 598Q137 554 137 481L137 481L63 481Q63 548 92.50 599.50Q122 651 175 679.50Q228 708 298 708L298 708L404 708ZM404 58Q480 58 527 112Q574 166 574 255L574 255L574 296L134 296L134 248Q134 162 177 110Q220 58 290 58L290 58L404 58Z"  horiz-adv-x="708" vert-adv-y="1000"  />

      
      <glyph glyph-name="uni54" unicode="&#x54;" d="M252 0L252 636L30 636L30 700L548 700L548 636L326 636L326 0L252 0Z"  horiz-adv-x="578" vert-adv-y="1000"  />

      
      <glyph glyph-name="uni0166" unicode="&#x0166;" d="M548 636L326 636L326 361L482 361L482 301L326 301L326 0L252 0L252 301L88 301L88 361L252 361L252 636L30 636L30 700L548 700L548 636Z"  horiz-adv-x="578" vert-adv-y="1000"  />

      
      <glyph glyph-name="uni0164" unicode="&#x0164;" d="M252 0L252 636L30 636L30 700L548 700L548 636L326 636L326 0L252 0ZM261 781L137 943L205 943L289 831L373 943L441 943L316 781L261 781Z"  horiz-adv-x="578" vert-adv-y="1000"  />

      
      <glyph glyph-name="uni0162" unicode="&#x0162;" d="M326 0L315 0L290-54L297-54Q336-54 359.50-75Q383-96 383-130L383-130L383-141Q383-178 354-200.50Q325-223 278-223L278-223L223-223L223-175L276-175Q298-175 312-165.50Q326-156 326-141L326-141L326-130Q326-115 313.50-105.50Q301-96 281-96L281-96L234-96L234-52L256 0L252 0L252 636L30 636L30 700L548 700L548 636L326 636L326 0Z"  horiz-adv-x="578" vert-adv-y="1000"  />

      
      <glyph glyph-name="uni021A" unicode="&#x021A;" d="M252 0L252 636L30 636L30 700L548 700L548 636L326 636L326 0L252 0ZM220-280L179-224L194-214Q224-194 238.50-167.50Q253-141 253-106L253-106L253-75L325-75L325-106Q325-162 304-201Q283-240 239-268L239-268L220-280Z"  horiz-adv-x="578" vert-adv-y="1000"  />

      
      <glyph glyph-name="uni1E6C" unicode="&#x1E6C;" d="M252 0L252 636L30 636L30 700L548 700L548 636L326 636L326 0L252 0ZM289-179Q265-179 250-164Q235-149 235-125L235-125Q235-101 250-86Q265-71 289-71L289-71Q313-71 328-86Q343-101 343-125L343-125Q343-149 328-164Q313-179 289-179L289-179Z"  horiz-adv-x="578" vert-adv-y="1000"  />

      
      <glyph glyph-name="uni1E6E" unicode="&#x1E6E;" d="M252 0L252 636L30 636L30 700L548 700L548 636L326 636L326 0L252 0ZM162-126L162-74L417-74L417-126L162-126Z"  horiz-adv-x="578" vert-adv-y="1000"  />

      
      <glyph glyph-name="uni55" unicode="&#x55;" d="M292-8Q228-8 179 20.50Q130 49 103 101.50Q76 154 76 222L76 222L76 700L150 700L150 220Q150 147 189 102.50Q228 58 292 58L292 58L400 58Q464 58 503 102.50Q542 147 542 220L542 220L542 700L616 700L616 222Q616 154 589 101.50Q562 49 513 20.50Q464-8 400-8L400-8L292-8Z"  horiz-adv-x="692" vert-adv-y="1000"  />

      
      <glyph glyph-name="unida" unicode="&#xda;" d="M292-8Q228-8 179 20.50Q130 49 103 101.50Q76 154 76 222L76 222L76 700L150 700L150 220Q150 147 189 102.50Q228 58 292 58L292 58L400 58Q464 58 503 102.50Q542 147 542 220L542 220L542 700L616 700L616 222Q616 154 589 101.50Q562 49 513 20.50Q464-8 400-8L400-8L292-8ZM315 781L398 933L480 933L381 781L315 781Z"  horiz-adv-x="692" vert-adv-y="1000"  />

      
      <glyph glyph-name="uni016C" unicode="&#x016C;" d="M292-8Q228-8 179 20.50Q130 49 103 101.50Q76 154 76 222L76 222L76 700L150 700L150 220Q150 147 189 102.50Q228 58 292 58L292 58L400 58Q464 58 503 102.50Q542 147 542 220L542 220L542 700L616 700L616 222Q616 154 589 101.50Q562 49 513 20.50Q464-8 400-8L400-8L292-8ZM340 773Q278 773 239.50 809Q201 845 201 904L201 904L201 912L259 912L259 904Q259 867 281 845Q303 823 340 823L340 823L352 823Q389 823 411.50 845Q434 867 434 904L434 904L434 912L491 912L491 904Q491 845 452.50 809Q414 773 352 773L352 773L340 773Z"  horiz-adv-x="692" vert-adv-y="1000"  />

      
      <glyph glyph-name="uni01D3" unicode="&#x01D3;" d="M292-8Q228-8 179 20.50Q130 49 103 101.50Q76 154 76 222L76 222L76 700L150 700L150 220Q150 147 189 102.50Q228 58 292 58L292 58L400 58Q464 58 503 102.50Q542 147 542 220L542 220L542 700L616 700L616 222Q616 154 589 101.50Q562 49 513 20.50Q464-8 400-8L400-8L292-8ZM318 781L194 943L262 943L346 831L430 943L498 943L373 781L318 781Z"  horiz-adv-x="692" vert-adv-y="1000"  />

      
      <glyph glyph-name="unidb" unicode="&#xdb;" d="M292-8Q228-8 179 20.50Q130 49 103 101.50Q76 154 76 222L76 222L76 700L150 700L150 220Q150 147 189 102.50Q228 58 292 58L292 58L400 58Q464 58 503 102.50Q542 147 542 220L542 220L542 700L616 700L616 222Q616 154 589 101.50Q562 49 513 20.50Q464-8 400-8L400-8L292-8ZM194 781L318 943L373 943L498 781L430 781L346 893L262 781L194 781Z"  horiz-adv-x="692" vert-adv-y="1000"  />

      
      <glyph glyph-name="unidc" unicode="&#xdc;" d="M292-8Q228-8 179 20.50Q130 49 103 101.50Q76 154 76 222L76 222L76 700L150 700L150 220Q150 147 189 102.50Q228 58 292 58L292 58L400 58Q464 58 503 102.50Q542 147 542 220L542 220L542 700L616 700L616 222Q616 154 589 101.50Q562 49 513 20.50Q464-8 400-8L400-8L292-8ZM246 781Q224 781 210.50 794.50Q197 808 197 830L197 830Q197 852 210.50 865.50Q224 879 246 879L246 879Q268 879 281.50 865.50Q295 852 295 830L295 830Q295 808 281.50 794.50Q268 781 246 781L246 781ZM445 781Q423 781 409.50 794.50Q396 808 396 830L396 830Q396 852 409.50 865.50Q423 879 445 879L445 879Q467 879 480.50 865.50Q494 852 494 830L494 830Q494 808 480.50 794.50Q467 781 445 781L445 781Z"  horiz-adv-x="692" vert-adv-y="1000"  />

      
      <glyph glyph-name="uni01D7" unicode="&#x01D7;" d="M292-8Q228-8 179 20.50Q130 49 103 101.50Q76 154 76 222L76 222L76 700L150 700L150 220Q150 147 189 102.50Q228 58 292 58L292 58L400 58Q464 58 503 102.50Q542 147 542 220L542 220L542 700L616 700L616 222Q616 154 589 101.50Q562 49 513 20.50Q464-8 400-8L400-8L292-8ZM315 925L379 1041L449 1041L373 925L315 925ZM246 781Q224 781 210.50 794.50Q197 808 197 830L197 830Q197 852 210.50 865.50Q224 879 246 879L246 879Q268 879 281.50 865.50Q295 852 295 830L295 830Q295 808 281.50 794.50Q268 781 246 781L246 781ZM445 781Q423 781 409.50 794.50Q396 808 396 830L396 830Q396 852 409.50 865.50Q423 879 445 879L445 879Q467 879 480.50 865.50Q494 852 494 830L494 830Q494 808 480.50 794.50Q467 781 445 781L445 781Z"  horiz-adv-x="692" vert-adv-y="1000"  />

      
      <glyph glyph-name="uni01D9" unicode="&#x01D9;" d="M292-8Q228-8 179 20.50Q130 49 103 101.50Q76 154 76 222L76 222L76 700L150 700L150 220Q150 147 189 102.50Q228 58 292 58L292 58L400 58Q464 58 503 102.50Q542 147 542 220L542 220L542 700L616 700L616 222Q616 154 589 101.50Q562 49 513 20.50Q464-8 400-8L400-8L292-8ZM321 925L217 1060L278 1060L346 969L414 1060L475 1060L371 925L321 925ZM246 781Q224 781 210.50 794.50Q197 808 197 830L197 830Q197 852 210.50 865.50Q224 879 246 879L246 879Q268 879 281.50 865.50Q295 852 295 830L295 830Q295 808 281.50 794.50Q268 781 246 781L246 781ZM445 781Q423 781 409.50 794.50Q396 808 396 830L396 830Q396 852 409.50 865.50Q423 879 445 879L445 879Q467 879 480.50 865.50Q494 852 494 830L494 830Q494 808 480.50 794.50Q467 781 445 781L445 781Z"  horiz-adv-x="692" vert-adv-y="1000"  />

      
      <glyph glyph-name="uni01DB" unicode="&#x01DB;" d="M292-8Q228-8 179 20.50Q130 49 103 101.50Q76 154 76 222L76 222L76 700L150 700L150 220Q150 147 189 102.50Q228 58 292 58L292 58L400 58Q464 58 503 102.50Q542 147 542 220L542 220L542 700L616 700L616 222Q616 154 589 101.50Q562 49 513 20.50Q464-8 400-8L400-8L292-8ZM313 925L237 1041L307 1041L371 925L313 925ZM246 781Q224 781 210.50 794.50Q197 808 197 830L197 830Q197 852 210.50 865.50Q224 879 246 879L246 879Q268 879 281.50 865.50Q295 852 295 830L295 830Q295 808 281.50 794.50Q268 781 246 781L246 781ZM445 781Q423 781 409.50 794.50Q396 808 396 830L396 830Q396 852 409.50 865.50Q423 879 445 879L445 879Q467 879 480.50 865.50Q494 852 494 830L494 830Q494 808 480.50 794.50Q467 781 445 781L445 781Z"  horiz-adv-x="692" vert-adv-y="1000"  />

      
      <glyph glyph-name="uni01D5" unicode="&#x01D5;" d="M292-8Q228-8 179 20.50Q130 49 103 101.50Q76 154 76 222L76 222L76 700L150 700L150 220Q150 147 189 102.50Q228 58 292 58L292 58L400 58Q464 58 503 102.50Q542 147 542 220L542 220L542 700L616 700L616 222Q616 154 589 101.50Q562 49 513 20.50Q464-8 400-8L400-8L292-8ZM219 935L219 987L474 987L474 935L219 935ZM246 781Q224 781 210.50 794.50Q197 808 197 830L197 830Q197 852 210.50 865.50Q224 879 246 879L246 879Q268 879 281.50 865.50Q295 852 295 830L295 830Q295 808 281.50 794.50Q268 781 246 781L246 781ZM445 781Q423 781 409.50 794.50Q396 808 396 830L396 830Q396 852 409.50 865.50Q423 879 445 879L445 879Q467 879 480.50 865.50Q494 852 494 830L494 830Q494 808 480.50 794.50Q467 781 445 781L445 781Z"  horiz-adv-x="692" vert-adv-y="1000"  />

      
      <glyph glyph-name="uni1EE4" unicode="&#x1EE4;" d="M292-8Q228-8 179 20.50Q130 49 103 101.50Q76 154 76 222L76 222L76 700L150 700L150 220Q150 147 189 102.50Q228 58 292 58L292 58L400 58Q464 58 503 102.50Q542 147 542 220L542 220L542 700L616 700L616 222Q616 154 589 101.50Q562 49 513 20.50Q464-8 400-8L400-8L292-8ZM346-179Q322-179 307-164Q292-149 292-125L292-125Q292-101 307-86Q322-71 346-71L346-71Q370-71 385-86Q400-101 400-125L400-125Q400-149 385-164Q370-179 346-179L346-179Z"  horiz-adv-x="692" vert-adv-y="1000"  />

      
      <glyph glyph-name="unid9" unicode="&#xd9;" d="M292-8Q228-8 179 20.50Q130 49 103 101.50Q76 154 76 222L76 222L76 700L150 700L150 220Q150 147 189 102.50Q228 58 292 58L292 58L400 58Q464 58 503 102.50Q542 147 542 220L542 220L542 700L616 700L616 222Q616 154 589 101.50Q562 49 513 20.50Q464-8 400-8L400-8L292-8ZM314 781L215 933L297 933L380 781L314 781Z"  horiz-adv-x="692" vert-adv-y="1000"  />

      
      <glyph glyph-name="uni1EE6" unicode="&#x1EE6;" d="M292-8Q228-8 179 20.50Q130 49 103 101.50Q76 154 76 222L76 222L76 700L150 700L150 220Q150 147 189 102.50Q228 58 292 58L292 58L400 58Q464 58 503 102.50Q542 147 542 220L542 220L542 700L616 700L616 222Q616 154 589 101.50Q562 49 513 20.50Q464-8 400-8L400-8L292-8ZM311 767L311 783Q311 804 323.50 818Q336 832 359 847L359 847Q376 859 384.50 867Q393 875 393 886L393 886L393 897Q393 930 357 930L357 930L337 930Q295 930 295 888L295 888L237 888Q237 982 337 982L337 982L357 982Q404 982 428.50 960.50Q453 939 453 897L453 897L453 886Q453 863 440 848Q427 833 403 816L403 816Q388 806 380.50 798.50Q373 791 373 783L373 783L373 767L311 767Z"  horiz-adv-x="692" vert-adv-y="1000"  />

      
      <glyph glyph-name="uni01AF" unicode="&#x01AF;" d="M701 700L769 700L769 688Q769 606 729 560.50Q689 515 618 515L618 515L616 515L616 222Q616 154 589 101.50Q562 49 513 20.50Q464-8 400-8L400-8L292-8Q228-8 179 20.50Q130 49 103 101.50Q76 154 76 222L76 222L76 700L150 700L150 220Q150 147 189 102.50Q228 58 292 58L292 58L400 58Q464 58 503 102.50Q542 147 542 220L542 220L542 700L616 700L616 575L620 575Q660 575 680.50 604Q701 633 701 688L701 688L701 700Z"  horiz-adv-x="766" vert-adv-y="1000"  />

      
      <glyph glyph-name="uni1EE8" unicode="&#x1EE8;" d="M701 700L769 700L769 688Q769 606 729 560.50Q689 515 618 515L618 515L616 515L616 222Q616 154 589 101.50Q562 49 513 20.50Q464-8 400-8L400-8L292-8Q228-8 179 20.50Q130 49 103 101.50Q76 154 76 222L76 222L76 700L150 700L150 220Q150 147 189 102.50Q228 58 292 58L292 58L400 58Q464 58 503 102.50Q542 147 542 220L542 220L542 700L616 700L616 575L620 575Q660 575 680.50 604Q701 633 701 688L701 688L701 700ZM315 781L398 933L480 933L381 781L315 781Z"  horiz-adv-x="766" vert-adv-y="1000"  />

      
      <glyph glyph-name="uni1EF0" unicode="&#x1EF0;" d="M701 700L769 700L769 688Q769 606 729 560.50Q689 515 618 515L618 515L616 515L616 222Q616 154 589 101.50Q562 49 513 20.50Q464-8 400-8L400-8L292-8Q228-8 179 20.50Q130 49 103 101.50Q76 154 76 222L76 222L76 700L150 700L150 220Q150 147 189 102.50Q228 58 292 58L292 58L400 58Q464 58 503 102.50Q542 147 542 220L542 220L542 700L616 700L616 575L620 575Q660 575 680.50 604Q701 633 701 688L701 688L701 700ZM346-179Q322-179 307-164Q292-149 292-125L292-125Q292-101 307-86Q322-71 346-71L346-71Q370-71 385-86Q400-101 400-125L400-125Q400-149 385-164Q370-179 346-179L346-179Z"  horiz-adv-x="766" vert-adv-y="1000"  />

      
      <glyph glyph-name="uni1EEA" unicode="&#x1EEA;" d="M701 700L769 700L769 688Q769 606 729 560.50Q689 515 618 515L618 515L616 515L616 222Q616 154 589 101.50Q562 49 513 20.50Q464-8 400-8L400-8L292-8Q228-8 179 20.50Q130 49 103 101.50Q76 154 76 222L76 222L76 700L150 700L150 220Q150 147 189 102.50Q228 58 292 58L292 58L400 58Q464 58 503 102.50Q542 147 542 220L542 220L542 700L616 700L616 575L620 575Q660 575 680.50 604Q701 633 701 688L701 688L701 700ZM314 781L215 933L297 933L380 781L314 781Z"  horiz-adv-x="766" vert-adv-y="1000"  />

      
      <glyph glyph-name="uni1EEC" unicode="&#x1EEC;" d="M701 700L769 700L769 688Q769 606 729 560.50Q689 515 618 515L618 515L616 515L616 222Q616 154 589 101.50Q562 49 513 20.50Q464-8 400-8L400-8L292-8Q228-8 179 20.50Q130 49 103 101.50Q76 154 76 222L76 222L76 700L150 700L150 220Q150 147 189 102.50Q228 58 292 58L292 58L400 58Q464 58 503 102.50Q542 147 542 220L542 220L542 700L616 700L616 575L620 575Q660 575 680.50 604Q701 633 701 688L701 688L701 700ZM311 767L311 783Q311 804 323.50 818Q336 832 359 847L359 847Q376 859 384.50 867Q393 875 393 886L393 886L393 897Q393 930 357 930L357 930L337 930Q295 930 295 888L295 888L237 888Q237 982 337 982L337 982L357 982Q404 982 428.50 960.50Q453 939 453 897L453 897L453 886Q453 863 440 848Q427 833 403 816L403 816Q388 806 380.50 798.50Q373 791 373 783L373 783L373 767L311 767Z"  horiz-adv-x="766" vert-adv-y="1000"  />

      
      <glyph glyph-name="uni1EEE" unicode="&#x1EEE;" d="M701 700L769 700L769 688Q769 606 729 560.50Q689 515 618 515L618 515L616 515L616 222Q616 154 589 101.50Q562 49 513 20.50Q464-8 400-8L400-8L292-8Q228-8 179 20.50Q130 49 103 101.50Q76 154 76 222L76 222L76 700L150 700L150 220Q150 147 189 102.50Q228 58 292 58L292 58L400 58Q464 58 503 102.50Q542 147 542 220L542 220L542 700L616 700L616 575L620 575Q660 575 680.50 604Q701 633 701 688L701 688L701 700ZM406 773Q383 773 366.50 783.50Q350 794 332 813L332 813Q316 828 308 834Q300 840 289 840L289 840L279 840Q264 840 253 826Q242 812 241 789L241 789L185 789Q186 834 212.50 862Q239 890 279 890L279 890L289 890Q314 890 331.50 879Q349 868 369 848L369 848Q381 835 389 829Q397 823 406 823L406 823L416 823Q430 823 440.50 837Q451 851 452 874L452 874L508 874Q507 829 481 801Q455 773 416 773L416 773L406 773Z"  horiz-adv-x="766" vert-adv-y="1000"  />

      
      <glyph glyph-name="uni0170" unicode="&#x0170;" d="M292-8Q228-8 179 20.50Q130 49 103 101.50Q76 154 76 222L76 222L76 700L150 700L150 220Q150 147 189 102.50Q228 58 292 58L292 58L400 58Q464 58 503 102.50Q542 147 542 220L542 220L542 700L616 700L616 222Q616 154 589 101.50Q562 49 513 20.50Q464-8 400-8L400-8L292-8ZM241 781L320 933L398 933L303 781L241 781ZM370 781L449 933L527 933L432 781L370 781Z"  horiz-adv-x="692" vert-adv-y="1000"  />

      
      <glyph glyph-name="uni016A" unicode="&#x016A;" d="M292-8Q228-8 179 20.50Q130 49 103 101.50Q76 154 76 222L76 222L76 700L150 700L150 220Q150 147 189 102.50Q228 58 292 58L292 58L400 58Q464 58 503 102.50Q542 147 542 220L542 220L542 700L616 700L616 222Q616 154 589 101.50Q562 49 513 20.50Q464-8 400-8L400-8L292-8ZM219 791L219 843L474 843L474 791L219 791Z"  horiz-adv-x="692" vert-adv-y="1000"  />

      
      <glyph glyph-name="uni0172" unicode="&#x0172;" d="M542 700L616 700L616 222Q616 136 574 76.50Q532 17 459-1L459-1Q429-17 411.50-43Q394-69 394-99L394-99L394-109Q394-129 406.50-142Q419-155 442-155L442-155L452-155Q465-155 480.50-149.50Q496-144 508-135L508-135L508-191Q498-199 480.50-204Q463-209 447-209L447-209L437-209Q389-209 360.50-183Q332-157 332-113L332-113L332-103Q332-76 345-50.50Q358-25 380-8L380-8L292-8Q228-8 179 20.50Q130 49 103 101.50Q76 154 76 222L76 222L76 700L150 700L150 220Q150 147 189 102.50Q228 58 292 58L292 58L400 58Q464 58 503 102.50Q542 147 542 220L542 220L542 700Z"  horiz-adv-x="692" vert-adv-y="1000"  />

      
      <glyph glyph-name="uni016E" unicode="&#x016E;" d="M292-8Q228-8 179 20.50Q130 49 103 101.50Q76 154 76 222L76 222L76 700L150 700L150 220Q150 147 189 102.50Q228 58 292 58L292 58L400 58Q464 58 503 102.50Q542 147 542 220L542 220L542 700L616 700L616 222Q616 154 589 101.50Q562 49 513 20.50Q464-8 400-8L400-8L292-8ZM346 743Q299 743 269.50 771.50Q240 800 240 846L240 846Q240 892 269.50 920.50Q299 949 346 949L346 949Q393 949 422.50 920.50Q452 892 452 846L452 846Q452 800 422.50 771.50Q393 743 346 743L346 743ZM346 791Q372 791 387 806Q402 821 402 846L402 846Q402 871 387 886Q372 901 346 901L346 901Q320 901 305 886Q290 871 290 846L290 846Q290 821 305 806Q320 791 346 791L346 791Z"  horiz-adv-x="692" vert-adv-y="1000"  />

      
      <glyph glyph-name="uni0168" unicode="&#x0168;" d="M292-8Q228-8 179 20.50Q130 49 103 101.50Q76 154 76 222L76 222L76 700L150 700L150 220Q150 147 189 102.50Q228 58 292 58L292 58L400 58Q464 58 503 102.50Q542 147 542 220L542 220L542 700L616 700L616 222Q616 154 589 101.50Q562 49 513 20.50Q464-8 400-8L400-8L292-8ZM406 773Q383 773 366.50 783.50Q350 794 332 813L332 813Q316 828 308 834Q300 840 289 840L289 840L279 840Q264 840 253 826Q242 812 241 789L241 789L185 789Q186 834 212.50 862Q239 890 279 890L279 890L289 890Q314 890 331.50 879Q349 868 369 848L369 848Q381 835 389 829Q397 823 406 823L406 823L416 823Q430 823 440.50 837Q451 851 452 874L452 874L508 874Q507 829 481 801Q455 773 416 773L416 773L406 773Z"  horiz-adv-x="692" vert-adv-y="1000"  />

      
      <glyph glyph-name="uni56" unicode="&#x56;" d="M314 0Q295 0 282.50 11Q270 22 261 46L261 46L22 700L98 700L316 89L317 89L536 700L612 700L352 0L314 0Z"  horiz-adv-x="634" vert-adv-y="1000"  />

      
      <glyph glyph-name="uni57" unicode="&#x57;" d="M219 0Q191 0 175 15.50Q159 31 153 65L153 65L34 700L107 700L216 96L217 96L393 663L424 663Q442 663 453 652.50Q464 642 471 620L471 620L627 96L628 96L737 700L810 700L691 65Q685 31 669 15.50Q653 0 625 0L625 0L595 0L425 564L424 564L249 0L219 0Z"  horiz-adv-x="844" vert-adv-y="1000"  />

      
      <glyph glyph-name="uni1E82" unicode="&#x1E82;" d="M219 0Q191 0 175 15.50Q159 31 153 65L153 65L34 700L107 700L216 96L217 96L393 663L424 663Q442 663 453 652.50Q464 642 471 620L471 620L627 96L628 96L737 700L810 700L691 65Q685 31 669 15.50Q653 0 625 0L625 0L595 0L425 564L424 564L249 0L219 0ZM391 781L474 933L556 933L457 781L391 781Z"  horiz-adv-x="844" vert-adv-y="1000"  />

      
      <glyph glyph-name="uni0174" unicode="&#x0174;" d="M219 0Q191 0 175 15.50Q159 31 153 65L153 65L34 700L107 700L216 96L217 96L393 663L424 663Q442 663 453 652.50Q464 642 471 620L471 620L627 96L628 96L737 700L810 700L691 65Q685 31 669 15.50Q653 0 625 0L625 0L595 0L425 564L424 564L249 0L219 0ZM270 781L394 943L449 943L574 781L506 781L422 893L338 781L270 781Z"  horiz-adv-x="844" vert-adv-y="1000"  />

      
      <glyph glyph-name="uni1E84" unicode="&#x1E84;" d="M219 0Q191 0 175 15.50Q159 31 153 65L153 65L34 700L107 700L216 96L217 96L393 663L424 663Q442 663 453 652.50Q464 642 471 620L471 620L627 96L628 96L737 700L810 700L691 65Q685 31 669 15.50Q653 0 625 0L625 0L595 0L425 564L424 564L249 0L219 0ZM322 781Q300 781 286.50 794.50Q273 808 273 830L273 830Q273 852 286.50 865.50Q300 879 322 879L322 879Q344 879 357.50 865.50Q371 852 371 830L371 830Q371 808 357.50 794.50Q344 781 322 781L322 781ZM521 781Q499 781 485.50 794.50Q472 808 472 830L472 830Q472 852 485.50 865.50Q499 879 521 879L521 879Q543 879 556.50 865.50Q570 852 570 830L570 830Q570 808 556.50 794.50Q543 781 521 781L521 781Z"  horiz-adv-x="844" vert-adv-y="1000"  />

      
      </font>
</defs>
</svg>
